<?xml version="1.0" encoding="UTF-8" standalone="no"?>
<!DOCTYPE svg PUBLIC "-//W3C//DTD SVG 1.1//EN" "http://www.w3.org/Graphics/SVG/1.1/DTD/svg11.dtd">
<svg width="100%" height="100%" viewBox="0 0 600 250" version="1.1" xmlns="http://www.w3.org/2000/svg" xmlns:xlink="http://www.w3.org/1999/xlink" xml:space="preserve" xmlns:serif="http://www.serif.com/" style="fill-rule:evenodd;clip-rule:evenodd;stroke-linecap:round;stroke-linejoin:round;stroke-miterlimit:1.5;">
    <g transform="matrix(0.377578,0,0,0.377578,127.982683,125)">
        <g transform="matrix(1,0,0,1,-300,-300)">
            <g transform="matrix(0.782438,0,0,0.782438,65.268676,65.268676)">
                <path d="M300,0L600,300L300,600L0,300L300,0Z" style="fill:none;stroke:rgb(0,122,77);stroke-width:10.65px;"/>
            </g>
            <g transform="matrix(0.986644,0,0,0.986644,20.871286,-12.852679)">
                <rect x="164.351" y="200.524" width="235.518" height="235.518" style="fill:none;stroke:rgb(0,122,77);stroke-width:8.45px;"/>
            </g>
            <g transform="matrix(1,0,0,1,2.162516,-6.290957)">
                <circle cx="297.837" cy="249.083" r="26.54" style="fill:none;stroke:rgb(0,122,77);stroke-width:8.33px;"/>
            </g>
            <g transform="matrix(0,2.314629,-2.314629,0,1074.093067,-275.790624)">
                <g transform="matrix(74.650971,0,0,74.650971,294.763164,361.730013)">
                </g>
                <text x="236.697px" y="361.73px" style="font-family:'CenturySchoolbook', 'Century Schoolbook', serif;font-size:74.651px;fill:rgb(0,122,77);">D</text>
            </g>
            <g transform="matrix(1,0,0,1,-1.965924,1.179554)">
                <rect x="292.529" y="269.332" width="18.873" height="30.668" style="fill:rgb(0,122,77);stroke:rgb(0,122,77);stroke-width:6.25px;"/>
            </g>
        </g>
    </g>
    <g transform="matrix(1,0,0,1,-1.486589,-10.286877)">
        <g transform="matrix(40.833333,0,0,40.833333,241.256209,118.613866)">
            <path d="M0.333,-0.708C0.461,-0.708 0.556,-0.678 0.618,-0.619C0.679,-0.559 0.71,-0.473 0.71,-0.362C0.71,-0.289 0.695,-0.226 0.665,-0.172C0.635,-0.117 0.591,-0.075 0.533,-0.045C0.475,-0.015 0.406,-0 0.324,-0C0.314,-0 0.3,-0 0.283,-0.001C0.266,-0.002 0.249,-0.002 0.23,-0.003C0.212,-0.003 0.195,-0.003 0.18,-0.003C0.153,-0.003 0.126,-0.003 0.1,-0.003C0.074,-0.002 0.053,-0.001 0.036,-0L0.036,-0.02C0.058,-0.021 0.075,-0.024 0.086,-0.028C0.097,-0.032 0.104,-0.04 0.108,-0.052C0.112,-0.064 0.113,-0.082 0.113,-0.106L0.113,-0.602C0.113,-0.627 0.112,-0.645 0.108,-0.656C0.104,-0.668 0.097,-0.676 0.086,-0.68C0.074,-0.685 0.058,-0.687 0.036,-0.688L0.036,-0.708C0.053,-0.707 0.074,-0.707 0.1,-0.706C0.126,-0.705 0.152,-0.704 0.178,-0.705C0.202,-0.706 0.229,-0.706 0.259,-0.707C0.289,-0.708 0.314,-0.708 0.333,-0.708ZM0.324,-0.69C0.294,-0.69 0.274,-0.684 0.264,-0.673C0.255,-0.662 0.25,-0.639 0.25,-0.604L0.25,-0.104C0.25,-0.069 0.255,-0.046 0.265,-0.035C0.275,-0.024 0.295,-0.018 0.325,-0.018C0.387,-0.018 0.435,-0.031 0.47,-0.058C0.505,-0.084 0.53,-0.122 0.545,-0.173C0.559,-0.224 0.566,-0.285 0.566,-0.358C0.566,-0.433 0.559,-0.494 0.543,-0.543C0.527,-0.592 0.501,-0.629 0.466,-0.653C0.431,-0.678 0.384,-0.69 0.324,-0.69Z" style="fill:rgb(0,122,77);fill-rule:nonzero;"/>
        </g>
        <g transform="matrix(40.833333,0,0,40.833333,272.207876,118.613866)">
            <path d="M0.278,-0.531C0.337,-0.531 0.383,-0.513 0.416,-0.478C0.45,-0.443 0.466,-0.386 0.466,-0.309L0.129,-0.309L0.128,-0.328L0.35,-0.328C0.351,-0.361 0.349,-0.391 0.344,-0.418C0.338,-0.446 0.33,-0.468 0.319,-0.485C0.307,-0.502 0.292,-0.51 0.273,-0.51C0.248,-0.51 0.225,-0.495 0.207,-0.465C0.188,-0.436 0.177,-0.387 0.172,-0.32L0.176,-0.314C0.175,-0.305 0.174,-0.296 0.174,-0.286C0.173,-0.276 0.173,-0.266 0.173,-0.256C0.173,-0.21 0.18,-0.172 0.193,-0.142C0.207,-0.112 0.224,-0.09 0.245,-0.076C0.267,-0.062 0.288,-0.055 0.311,-0.055C0.327,-0.055 0.342,-0.057 0.358,-0.062C0.374,-0.067 0.39,-0.076 0.405,-0.088C0.421,-0.101 0.435,-0.119 0.447,-0.142L0.466,-0.134C0.459,-0.111 0.446,-0.087 0.429,-0.064C0.412,-0.041 0.39,-0.022 0.364,-0.008C0.338,0.007 0.306,0.014 0.27,0.014C0.225,0.014 0.184,0.004 0.15,-0.016C0.115,-0.036 0.088,-0.066 0.069,-0.105C0.05,-0.145 0.04,-0.193 0.04,-0.251C0.04,-0.311 0.05,-0.363 0.07,-0.404C0.091,-0.446 0.119,-0.477 0.155,-0.498C0.191,-0.52 0.232,-0.531 0.278,-0.531Z" style="fill:rgb(0,122,77);fill-rule:nonzero;"/>
        </g>
        <g transform="matrix(40.833333,0,0,40.833333,292.828709,118.613866)">
            <path d="M0.217,-0.531C0.245,-0.531 0.269,-0.527 0.289,-0.519C0.309,-0.511 0.324,-0.504 0.333,-0.498C0.356,-0.481 0.369,-0.492 0.374,-0.53L0.396,-0.53C0.395,-0.511 0.394,-0.488 0.393,-0.462C0.392,-0.435 0.392,-0.4 0.392,-0.356L0.37,-0.356C0.367,-0.38 0.36,-0.404 0.351,-0.428C0.341,-0.452 0.328,-0.471 0.31,-0.486C0.292,-0.502 0.268,-0.51 0.239,-0.51C0.219,-0.51 0.201,-0.504 0.188,-0.492C0.174,-0.48 0.167,-0.463 0.167,-0.441C0.167,-0.421 0.173,-0.404 0.185,-0.389C0.197,-0.374 0.212,-0.36 0.231,-0.347C0.25,-0.334 0.27,-0.319 0.291,-0.304C0.315,-0.288 0.336,-0.272 0.355,-0.255C0.374,-0.239 0.389,-0.221 0.4,-0.201C0.411,-0.182 0.417,-0.158 0.417,-0.132C0.417,-0.101 0.408,-0.075 0.391,-0.053C0.374,-0.032 0.352,-0.015 0.325,-0.003C0.297,0.008 0.267,0.014 0.233,0.014C0.215,0.014 0.199,0.012 0.184,0.009C0.169,0.005 0.156,0.001 0.145,-0.004C0.137,-0.009 0.129,-0.013 0.121,-0.017C0.114,-0.021 0.107,-0.024 0.1,-0.027C0.094,-0.031 0.088,-0.029 0.083,-0.023C0.078,-0.017 0.074,-0.007 0.071,0.007L0.049,0.007C0.051,-0.014 0.052,-0.04 0.052,-0.071C0.053,-0.102 0.053,-0.142 0.053,-0.193L0.075,-0.193C0.079,-0.156 0.087,-0.124 0.096,-0.097C0.106,-0.069 0.12,-0.047 0.139,-0.032C0.158,-0.016 0.182,-0.008 0.211,-0.008C0.223,-0.008 0.235,-0.011 0.247,-0.016C0.259,-0.021 0.268,-0.029 0.276,-0.041C0.284,-0.053 0.288,-0.068 0.288,-0.087C0.288,-0.116 0.278,-0.141 0.258,-0.16C0.238,-0.179 0.213,-0.2 0.183,-0.222C0.16,-0.238 0.139,-0.255 0.12,-0.271C0.1,-0.287 0.084,-0.305 0.072,-0.325C0.059,-0.345 0.053,-0.369 0.053,-0.396C0.053,-0.426 0.061,-0.451 0.076,-0.471C0.091,-0.49 0.112,-0.505 0.137,-0.515C0.162,-0.526 0.189,-0.531 0.217,-0.531Z" style="fill:rgb(0,122,77);fill-rule:nonzero;"/>
        </g>
        <g transform="matrix(40.833333,0,0,40.833333,311.489542,118.613866)">
            <path d="M0.214,-0.527L0.214,0.084C0.214,0.114 0.223,0.135 0.239,0.145C0.255,0.155 0.278,0.16 0.306,0.16L0.306,0.181C0.29,0.18 0.268,0.179 0.239,0.178C0.21,0.177 0.179,0.177 0.146,0.177C0.123,0.177 0.1,0.177 0.078,0.178C0.055,0.179 0.038,0.18 0.026,0.181L0.026,0.16C0.049,0.16 0.065,0.155 0.074,0.146C0.084,0.137 0.088,0.12 0.088,0.094L0.088,-0.407C0.088,-0.437 0.084,-0.459 0.074,-0.474C0.064,-0.488 0.047,-0.495 0.02,-0.495L0.02,-0.516C0.042,-0.514 0.062,-0.513 0.082,-0.513C0.107,-0.513 0.131,-0.514 0.153,-0.517C0.175,-0.519 0.196,-0.523 0.214,-0.527ZM0.371,-0.531C0.406,-0.531 0.437,-0.521 0.464,-0.503C0.491,-0.484 0.513,-0.456 0.528,-0.419C0.544,-0.382 0.552,-0.336 0.552,-0.281C0.552,-0.237 0.547,-0.197 0.537,-0.161C0.527,-0.125 0.512,-0.093 0.492,-0.067C0.473,-0.041 0.449,-0.021 0.42,-0.007C0.392,0.007 0.359,0.014 0.322,0.014C0.294,0.014 0.269,0.009 0.247,-0.002C0.225,-0.013 0.209,-0.027 0.199,-0.045L0.209,-0.059C0.217,-0.045 0.228,-0.033 0.242,-0.025C0.256,-0.016 0.273,-0.012 0.292,-0.012C0.324,-0.012 0.35,-0.022 0.368,-0.044C0.387,-0.065 0.4,-0.094 0.408,-0.132C0.416,-0.17 0.419,-0.214 0.419,-0.264C0.419,-0.32 0.416,-0.364 0.408,-0.397C0.4,-0.43 0.389,-0.454 0.375,-0.469C0.361,-0.484 0.343,-0.492 0.323,-0.492C0.296,-0.492 0.271,-0.481 0.25,-0.46C0.228,-0.438 0.215,-0.407 0.21,-0.365L0.203,-0.393C0.214,-0.437 0.234,-0.471 0.264,-0.495C0.294,-0.519 0.33,-0.531 0.371,-0.531Z" style="fill:rgb(0,122,77);fill-rule:nonzero;"/>
        </g>
        <g transform="matrix(40.833333,0,0,40.833333,335.703709,118.613866)">
            <path d="M0.165,0.007C0.136,0.007 0.112,0.002 0.092,-0.009C0.072,-0.021 0.057,-0.035 0.047,-0.054C0.037,-0.073 0.032,-0.094 0.032,-0.118C0.032,-0.147 0.039,-0.17 0.052,-0.188C0.065,-0.207 0.082,-0.221 0.103,-0.233C0.124,-0.244 0.146,-0.253 0.17,-0.261C0.193,-0.268 0.215,-0.276 0.236,-0.283C0.257,-0.29 0.274,-0.298 0.287,-0.307C0.301,-0.317 0.307,-0.329 0.307,-0.344L0.307,-0.417C0.307,-0.438 0.304,-0.456 0.297,-0.47C0.291,-0.483 0.282,-0.494 0.269,-0.501C0.257,-0.507 0.241,-0.511 0.223,-0.511C0.209,-0.511 0.194,-0.509 0.179,-0.505C0.163,-0.501 0.151,-0.493 0.141,-0.482C0.158,-0.477 0.172,-0.468 0.181,-0.456C0.191,-0.443 0.196,-0.428 0.196,-0.41C0.196,-0.39 0.189,-0.373 0.175,-0.361C0.162,-0.35 0.145,-0.344 0.124,-0.344C0.102,-0.344 0.085,-0.351 0.074,-0.365C0.063,-0.379 0.057,-0.395 0.057,-0.414C0.057,-0.433 0.062,-0.448 0.071,-0.461C0.081,-0.473 0.093,-0.484 0.11,-0.494C0.127,-0.505 0.148,-0.514 0.174,-0.521C0.2,-0.527 0.228,-0.531 0.259,-0.531C0.288,-0.531 0.314,-0.527 0.337,-0.521C0.36,-0.515 0.379,-0.504 0.395,-0.488C0.411,-0.473 0.421,-0.454 0.426,-0.431C0.431,-0.409 0.433,-0.381 0.433,-0.348L0.433,-0.074C0.433,-0.057 0.435,-0.045 0.439,-0.039C0.443,-0.032 0.449,-0.028 0.458,-0.028C0.465,-0.028 0.471,-0.03 0.477,-0.033C0.483,-0.037 0.49,-0.041 0.497,-0.047L0.508,-0.03C0.494,-0.019 0.478,-0.009 0.462,-0.003C0.446,0.004 0.426,0.007 0.404,0.007C0.381,0.007 0.362,0.004 0.349,-0.003C0.335,-0.01 0.325,-0.02 0.318,-0.032C0.312,-0.045 0.309,-0.059 0.308,-0.077C0.292,-0.05 0.272,-0.029 0.249,-0.015C0.225,-0 0.197,0.007 0.165,0.007ZM0.225,-0.049C0.241,-0.049 0.256,-0.053 0.269,-0.062C0.283,-0.07 0.296,-0.084 0.307,-0.101L0.307,-0.303C0.301,-0.293 0.291,-0.284 0.279,-0.276C0.267,-0.268 0.253,-0.26 0.239,-0.252C0.225,-0.244 0.212,-0.235 0.2,-0.225C0.187,-0.215 0.177,-0.202 0.168,-0.187C0.16,-0.171 0.156,-0.152 0.156,-0.129C0.156,-0.103 0.162,-0.083 0.175,-0.07C0.187,-0.056 0.204,-0.049 0.225,-0.049Z" style="fill:rgb(0,122,77);fill-rule:nonzero;"/>
        </g>
        <g transform="matrix(40.833333,0,0,40.833333,356.569542,118.613866)">
            <path d="M0.282,-0.531C0.307,-0.531 0.33,-0.528 0.351,-0.522C0.372,-0.517 0.39,-0.509 0.405,-0.499C0.421,-0.489 0.434,-0.477 0.443,-0.462C0.452,-0.447 0.457,-0.43 0.457,-0.412C0.457,-0.39 0.45,-0.372 0.437,-0.359C0.424,-0.346 0.407,-0.339 0.387,-0.339C0.366,-0.339 0.349,-0.345 0.336,-0.357C0.323,-0.369 0.317,-0.385 0.317,-0.405C0.317,-0.425 0.323,-0.441 0.334,-0.453C0.346,-0.466 0.359,-0.474 0.375,-0.478C0.369,-0.487 0.36,-0.494 0.347,-0.5C0.334,-0.505 0.32,-0.508 0.305,-0.508C0.285,-0.508 0.267,-0.503 0.251,-0.492C0.235,-0.482 0.222,-0.466 0.21,-0.446C0.198,-0.426 0.189,-0.401 0.182,-0.371C0.176,-0.341 0.173,-0.307 0.173,-0.269C0.173,-0.215 0.179,-0.172 0.192,-0.141C0.205,-0.11 0.222,-0.088 0.243,-0.075C0.264,-0.062 0.286,-0.055 0.309,-0.055C0.323,-0.055 0.338,-0.058 0.354,-0.063C0.37,-0.068 0.386,-0.077 0.402,-0.09C0.418,-0.103 0.432,-0.121 0.444,-0.144L0.463,-0.137C0.455,-0.114 0.444,-0.09 0.427,-0.067C0.411,-0.043 0.39,-0.024 0.364,-0.009C0.338,0.006 0.306,0.014 0.269,0.014C0.226,0.014 0.187,0.004 0.153,-0.016C0.118,-0.035 0.091,-0.065 0.07,-0.105C0.05,-0.145 0.04,-0.194 0.04,-0.254C0.04,-0.313 0.05,-0.362 0.071,-0.404C0.092,-0.445 0.121,-0.476 0.157,-0.498C0.194,-0.52 0.236,-0.531 0.282,-0.531Z" style="fill:rgb(0,122,77);fill-rule:nonzero;"/>
        </g>
        <g transform="matrix(40.833333,0,0,40.833333,376.700376,118.613866)">
            <path d="M0.213,-0.783L0.213,-0.429C0.23,-0.466 0.253,-0.493 0.283,-0.508C0.312,-0.523 0.344,-0.531 0.379,-0.531C0.406,-0.531 0.429,-0.527 0.446,-0.52C0.463,-0.513 0.477,-0.504 0.488,-0.492C0.499,-0.479 0.508,-0.463 0.513,-0.443C0.518,-0.423 0.52,-0.396 0.52,-0.362L0.52,-0.093C0.52,-0.065 0.525,-0.046 0.536,-0.036C0.546,-0.026 0.564,-0.021 0.588,-0.021L0.588,-0C0.576,-0.001 0.558,-0.002 0.533,-0.003C0.508,-0.004 0.484,-0.004 0.46,-0.004C0.436,-0.004 0.412,-0.004 0.389,-0.003C0.365,-0.002 0.348,-0.001 0.336,-0L0.336,-0.021C0.358,-0.021 0.373,-0.026 0.381,-0.036C0.39,-0.046 0.394,-0.065 0.394,-0.093L0.394,-0.396C0.394,-0.414 0.393,-0.43 0.389,-0.445C0.386,-0.459 0.379,-0.47 0.369,-0.478C0.36,-0.486 0.345,-0.491 0.326,-0.491C0.305,-0.491 0.286,-0.485 0.269,-0.473C0.252,-0.462 0.238,-0.445 0.228,-0.425C0.218,-0.404 0.213,-0.38 0.213,-0.353L0.213,-0.093C0.213,-0.065 0.218,-0.046 0.226,-0.036C0.235,-0.026 0.25,-0.021 0.271,-0.021L0.271,-0C0.26,-0.001 0.243,-0.002 0.22,-0.003C0.198,-0.004 0.175,-0.004 0.151,-0.004C0.127,-0.004 0.102,-0.004 0.076,-0.003C0.051,-0.002 0.032,-0.001 0.019,-0L0.019,-0.021C0.044,-0.021 0.061,-0.026 0.072,-0.036C0.082,-0.046 0.087,-0.065 0.087,-0.093L0.087,-0.663C0.087,-0.693 0.082,-0.715 0.073,-0.729C0.063,-0.743 0.045,-0.751 0.019,-0.751L0.019,-0.772C0.041,-0.77 0.061,-0.769 0.081,-0.769C0.106,-0.769 0.13,-0.77 0.152,-0.772C0.174,-0.774 0.195,-0.778 0.213,-0.783Z" style="fill:rgb(0,122,77);fill-rule:nonzero;"/>
        </g>
        <g transform="matrix(40.833333,0,0,40.833333,401.282042,118.613866)">
            <path d="M0.28,-0.531C0.326,-0.531 0.367,-0.521 0.403,-0.503C0.439,-0.485 0.467,-0.456 0.487,-0.416C0.508,-0.376 0.519,-0.323 0.519,-0.258C0.519,-0.192 0.508,-0.14 0.487,-0.1C0.467,-0.06 0.439,-0.031 0.403,-0.013C0.367,0.005 0.326,0.014 0.28,0.014C0.234,0.014 0.193,0.005 0.157,-0.013C0.121,-0.031 0.092,-0.06 0.072,-0.1C0.051,-0.14 0.041,-0.192 0.041,-0.258C0.041,-0.323 0.051,-0.376 0.072,-0.416C0.092,-0.456 0.121,-0.485 0.157,-0.503C0.193,-0.521 0.234,-0.531 0.28,-0.531ZM0.28,-0.511C0.249,-0.511 0.223,-0.491 0.204,-0.451C0.184,-0.412 0.174,-0.347 0.174,-0.258C0.174,-0.168 0.184,-0.104 0.204,-0.065C0.223,-0.026 0.249,-0.006 0.28,-0.006C0.31,-0.006 0.336,-0.026 0.356,-0.065C0.376,-0.104 0.386,-0.168 0.386,-0.258C0.386,-0.347 0.376,-0.412 0.356,-0.451C0.336,-0.491 0.31,-0.511 0.28,-0.511Z" style="fill:rgb(0,122,77);fill-rule:nonzero;"/>
        </g>
        <g transform="matrix(40.833333,0,0,40.833333,424.107876,118.613866)">
        </g>
        <g transform="matrix(40.833333,0,0,40.833333,433.867042,118.613866)">
            <path d="M0.505,-0.783L0.505,-0.109C0.505,-0.079 0.51,-0.057 0.52,-0.043C0.53,-0.029 0.548,-0.021 0.573,-0.021L0.573,-0C0.553,-0.002 0.532,-0.003 0.511,-0.003C0.486,-0.003 0.463,-0.002 0.441,-0C0.419,0.002 0.398,0.005 0.379,0.011L0.379,-0.663C0.379,-0.693 0.374,-0.715 0.365,-0.73C0.355,-0.744 0.337,-0.751 0.311,-0.751L0.311,-0.772C0.333,-0.77 0.353,-0.769 0.373,-0.769C0.398,-0.769 0.422,-0.77 0.444,-0.773C0.466,-0.775 0.487,-0.779 0.505,-0.783ZM0.266,-0.531C0.295,-0.531 0.321,-0.525 0.345,-0.514C0.368,-0.503 0.385,-0.484 0.397,-0.457L0.385,-0.447C0.376,-0.467 0.363,-0.481 0.347,-0.49C0.331,-0.499 0.313,-0.504 0.293,-0.504C0.257,-0.504 0.228,-0.484 0.207,-0.443C0.185,-0.403 0.174,-0.342 0.174,-0.258C0.174,-0.202 0.179,-0.157 0.187,-0.123C0.196,-0.089 0.208,-0.064 0.225,-0.048C0.241,-0.033 0.26,-0.025 0.283,-0.025C0.307,-0.025 0.329,-0.035 0.348,-0.055C0.368,-0.074 0.379,-0.103 0.382,-0.139L0.389,-0.111C0.38,-0.07 0.364,-0.039 0.34,-0.018C0.316,0.003 0.285,0.014 0.245,0.014C0.205,0.014 0.17,0.004 0.139,-0.015C0.108,-0.035 0.084,-0.065 0.067,-0.105C0.05,-0.145 0.041,-0.197 0.041,-0.259C0.041,-0.32 0.051,-0.37 0.071,-0.411C0.091,-0.451 0.118,-0.481 0.152,-0.501C0.186,-0.521 0.224,-0.531 0.266,-0.531Z" style="fill:rgb(0,122,77);fill-rule:nonzero;"/>
        </g>
        <g transform="matrix(40.833333,0,0,40.833333,458.040376,118.613866)">
            <path d="M0.278,-0.531C0.337,-0.531 0.383,-0.513 0.416,-0.478C0.45,-0.443 0.466,-0.386 0.466,-0.309L0.129,-0.309L0.128,-0.328L0.35,-0.328C0.351,-0.361 0.349,-0.391 0.344,-0.418C0.338,-0.446 0.33,-0.468 0.319,-0.485C0.307,-0.502 0.292,-0.51 0.273,-0.51C0.248,-0.51 0.225,-0.495 0.207,-0.465C0.188,-0.436 0.177,-0.387 0.172,-0.32L0.176,-0.314C0.175,-0.305 0.174,-0.296 0.174,-0.286C0.173,-0.276 0.173,-0.266 0.173,-0.256C0.173,-0.21 0.18,-0.172 0.193,-0.142C0.207,-0.112 0.224,-0.09 0.245,-0.076C0.267,-0.062 0.288,-0.055 0.311,-0.055C0.327,-0.055 0.342,-0.057 0.358,-0.062C0.374,-0.067 0.39,-0.076 0.405,-0.088C0.421,-0.101 0.435,-0.119 0.447,-0.142L0.466,-0.134C0.459,-0.111 0.446,-0.087 0.429,-0.064C0.412,-0.041 0.39,-0.022 0.364,-0.008C0.338,0.007 0.306,0.014 0.27,0.014C0.225,0.014 0.184,0.004 0.15,-0.016C0.115,-0.036 0.088,-0.066 0.069,-0.105C0.05,-0.145 0.04,-0.193 0.04,-0.251C0.04,-0.311 0.05,-0.363 0.07,-0.404C0.091,-0.446 0.119,-0.477 0.155,-0.498C0.191,-0.52 0.232,-0.531 0.278,-0.531Z" style="fill:rgb(0,122,77);fill-rule:nonzero;"/>
        </g>
        <g transform="matrix(40.833333,0,0,40.833333,478.661209,118.613866)">
        </g>
        <g transform="matrix(40.833333,0,0,40.833333,488.420376,118.613866)">
            <path d="M0.685,-0.708L0.685,-0.688C0.664,-0.686 0.647,-0.681 0.636,-0.674C0.625,-0.666 0.618,-0.654 0.614,-0.638C0.61,-0.621 0.608,-0.598 0.608,-0.568L0.608,0.003C0.602,0.002 0.595,0.002 0.588,0.002C0.581,0.002 0.574,0.002 0.566,0.003L0.137,-0.58L0.137,-0.148C0.137,-0.116 0.139,-0.091 0.143,-0.073C0.147,-0.055 0.156,-0.043 0.17,-0.035C0.183,-0.028 0.204,-0.023 0.232,-0.02L0.232,-0C0.22,-0.001 0.203,-0.002 0.183,-0.003C0.163,-0.003 0.144,-0.003 0.126,-0.003C0.11,-0.003 0.094,-0.003 0.078,-0.003C0.062,-0.002 0.048,-0.001 0.037,-0L0.037,-0.02C0.059,-0.023 0.076,-0.028 0.087,-0.035C0.098,-0.042 0.105,-0.054 0.109,-0.071C0.112,-0.088 0.114,-0.111 0.114,-0.14L0.114,-0.602C0.114,-0.627 0.112,-0.645 0.109,-0.656C0.105,-0.668 0.097,-0.676 0.086,-0.68C0.075,-0.685 0.059,-0.687 0.037,-0.688L0.037,-0.708C0.048,-0.707 0.062,-0.707 0.078,-0.706C0.094,-0.705 0.11,-0.705 0.126,-0.705C0.142,-0.705 0.157,-0.705 0.171,-0.706C0.185,-0.707 0.198,-0.707 0.21,-0.708L0.585,-0.209L0.585,-0.56C0.585,-0.593 0.583,-0.618 0.579,-0.635C0.575,-0.653 0.566,-0.665 0.553,-0.673C0.539,-0.681 0.519,-0.686 0.49,-0.688L0.49,-0.708C0.503,-0.707 0.519,-0.707 0.539,-0.706C0.56,-0.705 0.579,-0.705 0.596,-0.705C0.613,-0.705 0.629,-0.705 0.645,-0.706C0.661,-0.707 0.675,-0.707 0.685,-0.708Z" style="fill:rgb(0,122,77);fill-rule:nonzero;"/>
        </g>
        <g transform="matrix(40.833333,0,0,40.833333,516.881209,118.613866)">
            <path d="M0.28,-0.531C0.326,-0.531 0.367,-0.521 0.403,-0.503C0.439,-0.485 0.467,-0.456 0.487,-0.416C0.508,-0.376 0.519,-0.323 0.519,-0.258C0.519,-0.192 0.508,-0.14 0.487,-0.1C0.467,-0.06 0.439,-0.031 0.403,-0.013C0.367,0.005 0.326,0.014 0.28,0.014C0.234,0.014 0.193,0.005 0.157,-0.013C0.121,-0.031 0.092,-0.06 0.072,-0.1C0.051,-0.14 0.041,-0.192 0.041,-0.258C0.041,-0.323 0.051,-0.376 0.072,-0.416C0.092,-0.456 0.121,-0.485 0.157,-0.503C0.193,-0.521 0.234,-0.531 0.28,-0.531ZM0.28,-0.511C0.249,-0.511 0.223,-0.491 0.204,-0.451C0.184,-0.412 0.174,-0.347 0.174,-0.258C0.174,-0.168 0.184,-0.104 0.204,-0.065C0.223,-0.026 0.249,-0.006 0.28,-0.006C0.31,-0.006 0.336,-0.026 0.356,-0.065C0.376,-0.104 0.386,-0.168 0.386,-0.258C0.386,-0.347 0.376,-0.412 0.356,-0.451C0.336,-0.491 0.31,-0.511 0.28,-0.511Z" style="fill:rgb(0,122,77);fill-rule:nonzero;"/>
        </g>
        <g transform="matrix(40.833333,0,0,40.833333,539.707042,118.613866)">
            <path d="M0.278,-0.531C0.337,-0.531 0.383,-0.513 0.416,-0.478C0.45,-0.443 0.466,-0.386 0.466,-0.309L0.129,-0.309L0.128,-0.328L0.35,-0.328C0.351,-0.361 0.349,-0.391 0.344,-0.418C0.338,-0.446 0.33,-0.468 0.319,-0.485C0.307,-0.502 0.292,-0.51 0.273,-0.51C0.248,-0.51 0.225,-0.495 0.207,-0.465C0.188,-0.436 0.177,-0.387 0.172,-0.32L0.176,-0.314C0.175,-0.305 0.174,-0.296 0.174,-0.286C0.173,-0.276 0.173,-0.266 0.173,-0.256C0.173,-0.21 0.18,-0.172 0.193,-0.142C0.207,-0.112 0.224,-0.09 0.245,-0.076C0.267,-0.062 0.288,-0.055 0.311,-0.055C0.327,-0.055 0.342,-0.057 0.358,-0.062C0.374,-0.067 0.39,-0.076 0.405,-0.088C0.421,-0.101 0.435,-0.119 0.447,-0.142L0.466,-0.134C0.459,-0.111 0.446,-0.087 0.429,-0.064C0.412,-0.041 0.39,-0.022 0.364,-0.008C0.338,0.007 0.306,0.014 0.27,0.014C0.225,0.014 0.184,0.004 0.15,-0.016C0.115,-0.036 0.088,-0.066 0.069,-0.105C0.05,-0.145 0.04,-0.193 0.04,-0.251C0.04,-0.311 0.05,-0.363 0.07,-0.404C0.091,-0.446 0.119,-0.477 0.155,-0.498C0.191,-0.52 0.232,-0.531 0.278,-0.531ZM0.383,-0.816C0.393,-0.808 0.398,-0.797 0.399,-0.783C0.4,-0.769 0.395,-0.756 0.384,-0.742C0.374,-0.729 0.361,-0.717 0.346,-0.706C0.331,-0.694 0.313,-0.68 0.293,-0.664C0.272,-0.648 0.248,-0.626 0.219,-0.599L0.208,-0.608C0.228,-0.643 0.243,-0.672 0.254,-0.696C0.264,-0.72 0.273,-0.741 0.28,-0.758C0.288,-0.776 0.297,-0.791 0.307,-0.804C0.318,-0.817 0.33,-0.824 0.345,-0.826C0.359,-0.828 0.372,-0.825 0.383,-0.816Z" style="fill:rgb(0,122,77);fill-rule:nonzero;"/>
        </g>
        <g transform="matrix(40.833333,0,0,40.833333,560.327876,118.613866)">
        </g>
    </g>
    <g transform="matrix(1,0,0,1,-0.773151,8.663366)">
        <g transform="matrix(18.333333,0,0,18.333333,241.256209,135.940598)">
            <path d="M0.105,-0L0.105,-0.7L0.599,-0.7L0.599,-0.613L0.205,-0.613L0.205,-0.087L0.613,-0.087L0.613,-0L0.105,-0ZM0.196,-0.313L0.196,-0.398L0.556,-0.398L0.556,-0.313L0.196,-0.313Z" style="fill:rgb(0,122,77);fill-rule:nonzero;"/>
        </g>
        <g transform="matrix(18.333333,0,0,18.333333,253.539542,135.940598)">
            <rect x="0.091" y="-0.742" width="0.096" height="0.742" style="fill:rgb(0,122,77);fill-rule:nonzero;"/>
        </g>
        <g transform="matrix(18.333333,0,0,18.333333,258.654542,135.940598)">
        </g>
        <g transform="matrix(18.333333,0,0,18.333333,263.586209,135.940598)">
            <path d="M0.372,0.006C0.327,0.006 0.286,-0.005 0.25,-0.025C0.213,-0.045 0.184,-0.075 0.163,-0.115C0.142,-0.155 0.132,-0.205 0.132,-0.265C0.132,-0.325 0.142,-0.375 0.164,-0.415C0.186,-0.455 0.215,-0.485 0.251,-0.505C0.288,-0.525 0.328,-0.535 0.372,-0.535C0.424,-0.535 0.47,-0.524 0.51,-0.501C0.55,-0.479 0.582,-0.447 0.605,-0.407C0.628,-0.366 0.64,-0.319 0.64,-0.265C0.64,-0.211 0.628,-0.164 0.605,-0.123C0.582,-0.083 0.55,-0.051 0.51,-0.028C0.47,-0.006 0.424,0.006 0.372,0.006ZM0.091,-0L0.091,-0.742L0.187,-0.742L0.187,-0.389L0.177,-0.266L0.183,-0.143L0.183,-0L0.091,-0ZM0.364,-0.079C0.398,-0.079 0.429,-0.086 0.455,-0.101C0.482,-0.117 0.504,-0.139 0.519,-0.167C0.535,-0.195 0.543,-0.228 0.543,-0.265C0.543,-0.303 0.535,-0.336 0.519,-0.364C0.504,-0.391 0.482,-0.413 0.455,-0.428C0.429,-0.444 0.398,-0.451 0.364,-0.451C0.33,-0.451 0.3,-0.444 0.273,-0.428C0.246,-0.413 0.225,-0.391 0.209,-0.364C0.194,-0.336 0.186,-0.303 0.186,-0.265C0.186,-0.228 0.194,-0.195 0.209,-0.167C0.225,-0.139 0.246,-0.117 0.273,-0.101C0.3,-0.086 0.33,-0.079 0.364,-0.079Z" style="fill:rgb(0,122,77);fill-rule:nonzero;"/>
        </g>
        <g transform="matrix(18.333333,0,0,18.333333,276.089542,135.940598)">
            <rect x="0.091" y="-0.742" width="0.096" height="0.742" style="fill:rgb(0,122,77);fill-rule:nonzero;"/>
        </g>
        <g transform="matrix(18.333333,0,0,18.333333,281.204542,135.940598)">
            <path d="M0.318,0.006C0.265,0.006 0.218,-0.006 0.176,-0.029C0.135,-0.052 0.102,-0.084 0.078,-0.125C0.054,-0.166 0.042,-0.213 0.042,-0.265C0.042,-0.318 0.054,-0.365 0.078,-0.405C0.102,-0.446 0.135,-0.477 0.176,-0.5C0.217,-0.524 0.265,-0.535 0.318,-0.535C0.371,-0.535 0.418,-0.524 0.46,-0.501C0.501,-0.477 0.534,-0.446 0.558,-0.405C0.581,-0.365 0.593,-0.318 0.593,-0.265C0.593,-0.213 0.581,-0.166 0.558,-0.125C0.534,-0.084 0.501,-0.052 0.46,-0.029C0.418,-0.006 0.37,0.006 0.318,0.006ZM0.318,-0.079C0.352,-0.079 0.383,-0.086 0.41,-0.101C0.436,-0.117 0.458,-0.139 0.473,-0.167C0.489,-0.195 0.496,-0.228 0.496,-0.265C0.496,-0.303 0.489,-0.336 0.473,-0.364C0.458,-0.391 0.436,-0.413 0.41,-0.428C0.383,-0.444 0.352,-0.451 0.318,-0.451C0.284,-0.451 0.253,-0.444 0.227,-0.428C0.2,-0.413 0.179,-0.391 0.163,-0.364C0.147,-0.336 0.139,-0.303 0.139,-0.265C0.139,-0.228 0.147,-0.195 0.163,-0.167C0.179,-0.139 0.2,-0.117 0.227,-0.101C0.253,-0.086 0.284,-0.079 0.318,-0.079Z" style="fill:rgb(0,122,77);fill-rule:nonzero;"/>
        </g>
        <g transform="matrix(18.333333,0,0,18.333333,292.846209,135.940598)">
            <path d="M0.323,0.2C0.275,0.2 0.228,0.193 0.182,0.179C0.136,0.166 0.099,0.147 0.07,0.121L0.116,0.047C0.141,0.068 0.171,0.085 0.207,0.097C0.243,0.109 0.281,0.116 0.32,0.116C0.382,0.116 0.429,0.101 0.458,0.072C0.488,0.043 0.502,-0.002 0.502,-0.062L0.502,-0.174L0.512,-0.279L0.507,-0.385L0.507,-0.53L0.598,-0.53L0.598,-0.072C0.598,0.021 0.575,0.09 0.528,0.134C0.482,0.178 0.413,0.2 0.323,0.2ZM0.311,-0.022C0.26,-0.022 0.214,-0.033 0.173,-0.055C0.133,-0.076 0.101,-0.106 0.077,-0.145C0.054,-0.183 0.042,-0.228 0.042,-0.279C0.042,-0.33 0.054,-0.375 0.077,-0.413C0.101,-0.452 0.133,-0.482 0.173,-0.503C0.214,-0.525 0.26,-0.535 0.311,-0.535C0.357,-0.535 0.398,-0.526 0.435,-0.507C0.472,-0.489 0.502,-0.461 0.524,-0.423C0.547,-0.385 0.558,-0.337 0.558,-0.279C0.558,-0.221 0.547,-0.174 0.524,-0.136C0.502,-0.098 0.472,-0.069 0.435,-0.05C0.398,-0.031 0.357,-0.022 0.311,-0.022ZM0.322,-0.106C0.357,-0.106 0.389,-0.113 0.416,-0.128C0.444,-0.143 0.465,-0.163 0.481,-0.189C0.496,-0.215 0.504,-0.245 0.504,-0.279C0.504,-0.313 0.496,-0.343 0.481,-0.369C0.465,-0.395 0.444,-0.415 0.416,-0.43C0.389,-0.444 0.357,-0.451 0.322,-0.451C0.286,-0.451 0.255,-0.444 0.227,-0.43C0.2,-0.415 0.178,-0.395 0.162,-0.369C0.147,-0.343 0.139,-0.313 0.139,-0.279C0.139,-0.245 0.147,-0.215 0.162,-0.189C0.178,-0.163 0.2,-0.143 0.227,-0.128C0.255,-0.113 0.286,-0.106 0.322,-0.106Z" style="fill:rgb(0,122,77);fill-rule:nonzero;"/>
        </g>
        <g transform="matrix(18.333333,0,0,18.333333,305.496209,135.940598)">
        </g>
        <g transform="matrix(18.333333,0,0,18.333333,310.427876,135.940598)">
            <path d="M0.372,0.006C0.328,0.006 0.288,-0.005 0.251,-0.025C0.215,-0.045 0.186,-0.075 0.164,-0.115C0.142,-0.155 0.132,-0.205 0.132,-0.265C0.132,-0.325 0.142,-0.375 0.163,-0.415C0.184,-0.455 0.213,-0.485 0.25,-0.505C0.286,-0.525 0.327,-0.535 0.372,-0.535C0.424,-0.535 0.47,-0.524 0.51,-0.501C0.55,-0.479 0.582,-0.447 0.605,-0.407C0.628,-0.366 0.64,-0.319 0.64,-0.265C0.64,-0.211 0.628,-0.163 0.605,-0.123C0.582,-0.083 0.55,-0.051 0.51,-0.028C0.47,-0.006 0.424,0.006 0.372,0.006ZM0.091,0.194L0.091,-0.53L0.183,-0.53L0.183,-0.387L0.177,-0.264L0.187,-0.141L0.187,0.194L0.091,0.194ZM0.364,-0.079C0.398,-0.079 0.429,-0.086 0.455,-0.101C0.482,-0.117 0.504,-0.138 0.519,-0.167C0.535,-0.195 0.543,-0.228 0.543,-0.265C0.543,-0.303 0.535,-0.336 0.519,-0.363C0.504,-0.391 0.482,-0.413 0.455,-0.428C0.429,-0.444 0.398,-0.451 0.364,-0.451C0.33,-0.451 0.3,-0.444 0.273,-0.428C0.246,-0.413 0.225,-0.391 0.209,-0.363C0.194,-0.336 0.186,-0.303 0.186,-0.265C0.186,-0.228 0.194,-0.195 0.209,-0.167C0.225,-0.138 0.246,-0.117 0.273,-0.101C0.3,-0.086 0.33,-0.079 0.364,-0.079Z" style="fill:rgb(0,122,77);fill-rule:nonzero;"/>
        </g>
        <g transform="matrix(18.333333,0,0,18.333333,322.931209,135.940598)">
            <path d="M0.327,0.006C0.27,0.006 0.221,-0.006 0.178,-0.029C0.135,-0.052 0.102,-0.084 0.078,-0.125C0.054,-0.166 0.042,-0.213 0.042,-0.265C0.042,-0.317 0.054,-0.364 0.077,-0.405C0.099,-0.445 0.131,-0.477 0.171,-0.5C0.212,-0.524 0.257,-0.535 0.308,-0.535C0.359,-0.535 0.404,-0.524 0.444,-0.501C0.483,-0.478 0.514,-0.446 0.537,-0.405C0.559,-0.365 0.57,-0.317 0.57,-0.262C0.57,-0.258 0.57,-0.254 0.57,-0.248C0.569,-0.243 0.569,-0.238 0.568,-0.233L0.117,-0.233L0.117,-0.302L0.518,-0.302L0.479,-0.278C0.48,-0.312 0.473,-0.343 0.458,-0.369C0.443,-0.395 0.423,-0.416 0.397,-0.431C0.372,-0.446 0.342,-0.454 0.308,-0.454C0.275,-0.454 0.245,-0.446 0.219,-0.431C0.193,-0.416 0.173,-0.395 0.158,-0.369C0.144,-0.342 0.136,-0.311 0.136,-0.276L0.136,-0.26C0.136,-0.224 0.144,-0.193 0.161,-0.166C0.177,-0.138 0.199,-0.117 0.229,-0.101C0.258,-0.086 0.292,-0.079 0.33,-0.079C0.361,-0.079 0.39,-0.084 0.416,-0.094C0.442,-0.105 0.464,-0.121 0.483,-0.142L0.536,-0.08C0.512,-0.052 0.482,-0.031 0.447,-0.016C0.411,-0.002 0.371,0.006 0.327,0.006Z" style="fill:rgb(0,122,77);fill-rule:nonzero;"/>
        </g>
        <g transform="matrix(18.333333,0,0,18.333333,334.151209,135.940598)">
            <path d="M0.091,-0L0.091,-0.53L0.183,-0.53L0.183,-0.386L0.174,-0.422C0.189,-0.459 0.213,-0.487 0.248,-0.506C0.282,-0.526 0.325,-0.535 0.376,-0.535L0.376,-0.442C0.372,-0.442 0.368,-0.443 0.365,-0.443C0.361,-0.443 0.358,-0.443 0.354,-0.443C0.303,-0.443 0.262,-0.428 0.232,-0.397C0.202,-0.367 0.187,-0.322 0.187,-0.264L0.187,-0L0.091,-0Z" style="fill:rgb(0,122,77);fill-rule:nonzero;"/>
        </g>
        <g transform="matrix(18.333333,0,0,18.333333,341.649542,135.940598)">
            <path d="M0.243,0.006C0.199,0.006 0.157,-0 0.117,-0.012C0.078,-0.024 0.046,-0.039 0.024,-0.056L0.064,-0.132C0.087,-0.116 0.115,-0.103 0.148,-0.093C0.182,-0.082 0.215,-0.077 0.25,-0.077C0.294,-0.077 0.327,-0.083 0.347,-0.096C0.366,-0.109 0.376,-0.127 0.376,-0.149C0.376,-0.166 0.37,-0.179 0.358,-0.188C0.346,-0.197 0.33,-0.204 0.31,-0.209C0.29,-0.214 0.269,-0.218 0.245,-0.222C0.221,-0.225 0.197,-0.23 0.173,-0.235C0.149,-0.241 0.127,-0.249 0.107,-0.26C0.087,-0.27 0.071,-0.284 0.059,-0.303C0.047,-0.321 0.041,-0.346 0.041,-0.376C0.041,-0.408 0.05,-0.436 0.068,-0.46C0.086,-0.484 0.112,-0.502 0.144,-0.515C0.177,-0.529 0.217,-0.535 0.262,-0.535C0.297,-0.535 0.332,-0.531 0.368,-0.522C0.403,-0.514 0.432,-0.502 0.455,-0.487L0.414,-0.411C0.39,-0.427 0.365,-0.438 0.339,-0.444C0.313,-0.45 0.287,-0.453 0.261,-0.453C0.219,-0.453 0.188,-0.446 0.167,-0.433C0.147,-0.419 0.136,-0.402 0.136,-0.38C0.136,-0.362 0.142,-0.348 0.154,-0.339C0.167,-0.329 0.183,-0.322 0.202,-0.316C0.222,-0.311 0.244,-0.306 0.268,-0.303C0.292,-0.299 0.316,-0.294 0.34,-0.289C0.364,-0.283 0.386,-0.275 0.405,-0.265C0.425,-0.255 0.441,-0.241 0.453,-0.223C0.466,-0.205 0.472,-0.181 0.472,-0.151C0.472,-0.119 0.462,-0.091 0.444,-0.068C0.425,-0.044 0.399,-0.026 0.365,-0.014C0.331,-0.001 0.291,0.006 0.243,0.006Z" style="fill:rgb(0,122,77);fill-rule:nonzero;"/>
        </g>
        <g transform="matrix(18.333333,0,0,18.333333,350.834542,135.940598)">
            <path d="M0.318,0.006C0.265,0.006 0.218,-0.006 0.176,-0.029C0.135,-0.052 0.102,-0.084 0.078,-0.125C0.054,-0.166 0.042,-0.213 0.042,-0.265C0.042,-0.318 0.054,-0.365 0.078,-0.405C0.102,-0.446 0.135,-0.477 0.176,-0.5C0.217,-0.524 0.265,-0.535 0.318,-0.535C0.371,-0.535 0.418,-0.524 0.46,-0.501C0.501,-0.477 0.534,-0.446 0.558,-0.405C0.581,-0.365 0.593,-0.318 0.593,-0.265C0.593,-0.213 0.581,-0.166 0.558,-0.125C0.534,-0.084 0.501,-0.052 0.46,-0.029C0.418,-0.006 0.37,0.006 0.318,0.006ZM0.318,-0.079C0.352,-0.079 0.383,-0.086 0.41,-0.101C0.436,-0.117 0.458,-0.139 0.473,-0.167C0.489,-0.195 0.496,-0.228 0.496,-0.265C0.496,-0.303 0.489,-0.336 0.473,-0.364C0.458,-0.391 0.436,-0.413 0.41,-0.428C0.383,-0.444 0.352,-0.451 0.318,-0.451C0.284,-0.451 0.253,-0.444 0.227,-0.428C0.2,-0.413 0.179,-0.391 0.163,-0.364C0.147,-0.336 0.139,-0.303 0.139,-0.265C0.139,-0.228 0.147,-0.195 0.163,-0.167C0.179,-0.139 0.2,-0.117 0.227,-0.101C0.253,-0.086 0.284,-0.079 0.318,-0.079Z" style="fill:rgb(0,122,77);fill-rule:nonzero;"/>
        </g>
        <g transform="matrix(18.333333,0,0,18.333333,362.476209,135.940598)">
            <path d="M0.091,-0L0.091,-0.53L0.183,-0.53L0.183,-0.387L0.168,-0.425C0.185,-0.46 0.212,-0.487 0.248,-0.506C0.284,-0.526 0.326,-0.535 0.374,-0.535C0.417,-0.535 0.455,-0.527 0.488,-0.51C0.521,-0.494 0.547,-0.468 0.566,-0.434C0.585,-0.4 0.594,-0.357 0.594,-0.305L0.594,-0L0.498,-0L0.498,-0.294C0.498,-0.346 0.486,-0.384 0.461,-0.41C0.436,-0.436 0.4,-0.449 0.355,-0.449C0.321,-0.449 0.292,-0.443 0.266,-0.429C0.241,-0.416 0.222,-0.396 0.208,-0.37C0.194,-0.344 0.187,-0.312 0.187,-0.273L0.187,-0L0.091,-0Z" style="fill:rgb(0,122,77);fill-rule:nonzero;"/>
        </g>
        <g transform="matrix(18.333333,0,0,18.333333,374.961209,135.940598)">
            <path d="M0.42,-0L0.42,-0.112L0.415,-0.133L0.415,-0.324C0.415,-0.365 0.404,-0.396 0.38,-0.419C0.356,-0.441 0.321,-0.452 0.273,-0.452C0.241,-0.452 0.211,-0.447 0.181,-0.437C0.151,-0.426 0.126,-0.413 0.105,-0.395L0.065,-0.467C0.092,-0.489 0.125,-0.506 0.164,-0.518C0.202,-0.529 0.242,-0.535 0.284,-0.535C0.357,-0.535 0.413,-0.517 0.452,-0.482C0.492,-0.447 0.511,-0.392 0.511,-0.32L0.511,-0L0.42,-0ZM0.246,0.006C0.207,0.006 0.172,-0.001 0.142,-0.014C0.113,-0.027 0.09,-0.046 0.074,-0.069C0.058,-0.093 0.05,-0.12 0.05,-0.15C0.05,-0.179 0.057,-0.205 0.07,-0.228C0.084,-0.251 0.106,-0.27 0.137,-0.284C0.169,-0.298 0.21,-0.305 0.263,-0.305L0.431,-0.305L0.431,-0.236L0.267,-0.236C0.219,-0.236 0.187,-0.228 0.17,-0.212C0.153,-0.196 0.145,-0.177 0.145,-0.154C0.145,-0.128 0.155,-0.107 0.176,-0.091C0.197,-0.076 0.226,-0.068 0.262,-0.068C0.298,-0.068 0.33,-0.076 0.357,-0.092C0.384,-0.108 0.403,-0.132 0.415,-0.162L0.434,-0.096C0.421,-0.064 0.399,-0.04 0.367,-0.021C0.335,-0.003 0.295,0.006 0.246,0.006Z" style="fill:rgb(0,122,77);fill-rule:nonzero;"/>
        </g>
        <g transform="matrix(18.333333,0,0,18.333333,385.924542,135.940598)">
            <rect x="0.091" y="-0.742" width="0.096" height="0.742" style="fill:rgb(0,122,77);fill-rule:nonzero;"/>
        </g>
        <g transform="matrix(18.333333,0,0,18.333333,391.039542,135.940598)">
        </g>
        <g transform="matrix(18.333333,0,0,18.333333,395.971209,135.940598)">
            <path d="M0.31,0.006C0.259,0.006 0.213,-0.006 0.172,-0.028C0.132,-0.051 0.1,-0.083 0.077,-0.123C0.054,-0.164 0.042,-0.211 0.042,-0.265C0.042,-0.319 0.054,-0.366 0.077,-0.407C0.1,-0.447 0.132,-0.479 0.172,-0.501C0.213,-0.524 0.259,-0.535 0.31,-0.535C0.355,-0.535 0.395,-0.525 0.431,-0.505C0.467,-0.485 0.496,-0.455 0.518,-0.415C0.54,-0.375 0.55,-0.325 0.55,-0.265C0.55,-0.205 0.54,-0.155 0.519,-0.115C0.498,-0.075 0.469,-0.045 0.433,-0.025C0.397,-0.005 0.356,0.006 0.31,0.006ZM0.318,-0.079C0.352,-0.079 0.382,-0.086 0.409,-0.101C0.436,-0.117 0.457,-0.139 0.473,-0.167C0.488,-0.195 0.496,-0.228 0.496,-0.265C0.496,-0.303 0.488,-0.336 0.473,-0.364C0.457,-0.391 0.436,-0.413 0.409,-0.428C0.382,-0.444 0.352,-0.451 0.318,-0.451C0.284,-0.451 0.253,-0.444 0.227,-0.428C0.2,-0.413 0.179,-0.391 0.163,-0.364C0.147,-0.336 0.139,-0.303 0.139,-0.265C0.139,-0.228 0.147,-0.195 0.163,-0.167C0.179,-0.139 0.2,-0.117 0.227,-0.101C0.253,-0.086 0.284,-0.079 0.318,-0.079ZM0.499,-0L0.499,-0.143L0.505,-0.266L0.495,-0.389L0.495,-0.742L0.591,-0.742L0.591,-0L0.499,-0Z" style="fill:rgb(0,122,77);fill-rule:nonzero;"/>
        </g>
        <g transform="matrix(18.333333,0,0,18.333333,408.474542,135.940598)">
            <path d="M0.327,0.006C0.27,0.006 0.221,-0.006 0.178,-0.029C0.135,-0.052 0.102,-0.084 0.078,-0.125C0.054,-0.166 0.042,-0.213 0.042,-0.265C0.042,-0.317 0.054,-0.364 0.077,-0.405C0.099,-0.445 0.131,-0.477 0.171,-0.5C0.212,-0.524 0.257,-0.535 0.308,-0.535C0.359,-0.535 0.404,-0.524 0.444,-0.501C0.483,-0.478 0.514,-0.446 0.537,-0.405C0.559,-0.365 0.57,-0.317 0.57,-0.262C0.57,-0.258 0.57,-0.254 0.57,-0.248C0.569,-0.243 0.569,-0.238 0.568,-0.233L0.117,-0.233L0.117,-0.302L0.518,-0.302L0.479,-0.278C0.48,-0.312 0.473,-0.343 0.458,-0.369C0.443,-0.395 0.423,-0.416 0.397,-0.431C0.372,-0.446 0.342,-0.454 0.308,-0.454C0.275,-0.454 0.245,-0.446 0.219,-0.431C0.193,-0.416 0.173,-0.395 0.158,-0.369C0.144,-0.342 0.136,-0.311 0.136,-0.276L0.136,-0.26C0.136,-0.224 0.144,-0.193 0.161,-0.166C0.177,-0.138 0.199,-0.117 0.229,-0.101C0.258,-0.086 0.292,-0.079 0.33,-0.079C0.361,-0.079 0.39,-0.084 0.416,-0.094C0.442,-0.105 0.464,-0.121 0.483,-0.142L0.536,-0.08C0.512,-0.052 0.482,-0.031 0.447,-0.016C0.411,-0.002 0.371,0.006 0.327,0.006Z" style="fill:rgb(0,122,77);fill-rule:nonzero;"/>
        </g>
        <g transform="matrix(18.333333,0,0,18.333333,419.694542,135.940598)">
        </g>
        <g transform="matrix(18.333333,0,0,18.333333,424.626209,135.940598)">
            <path d="M0.105,-0L0.105,-0.7L0.187,-0.7L0.65,-0.125L0.607,-0.125L0.607,-0.7L0.707,-0.7L0.707,-0L0.625,-0L0.162,-0.575L0.205,-0.575L0.205,-0L0.105,-0Z" style="fill:rgb(0,122,77);fill-rule:nonzero;"/>
        </g>
        <g transform="matrix(18.333333,0,0,18.333333,439.512876,135.940598)">
            <path d="M0.318,0.006C0.265,0.006 0.218,-0.006 0.176,-0.029C0.135,-0.052 0.102,-0.084 0.078,-0.125C0.054,-0.166 0.042,-0.213 0.042,-0.265C0.042,-0.318 0.054,-0.365 0.078,-0.405C0.102,-0.446 0.135,-0.477 0.176,-0.5C0.217,-0.524 0.265,-0.535 0.318,-0.535C0.371,-0.535 0.418,-0.524 0.46,-0.501C0.501,-0.477 0.534,-0.446 0.558,-0.405C0.581,-0.365 0.593,-0.318 0.593,-0.265C0.593,-0.213 0.581,-0.166 0.558,-0.125C0.534,-0.084 0.501,-0.052 0.46,-0.029C0.418,-0.006 0.37,0.006 0.318,0.006ZM0.318,-0.079C0.352,-0.079 0.383,-0.086 0.41,-0.101C0.436,-0.117 0.458,-0.139 0.473,-0.167C0.489,-0.195 0.496,-0.228 0.496,-0.265C0.496,-0.303 0.489,-0.336 0.473,-0.364C0.458,-0.391 0.436,-0.413 0.41,-0.428C0.383,-0.444 0.352,-0.451 0.318,-0.451C0.284,-0.451 0.253,-0.444 0.227,-0.428C0.2,-0.413 0.179,-0.391 0.163,-0.364C0.147,-0.336 0.139,-0.303 0.139,-0.265C0.139,-0.228 0.147,-0.195 0.163,-0.167C0.179,-0.139 0.2,-0.117 0.227,-0.101C0.253,-0.086 0.284,-0.079 0.318,-0.079Z" style="fill:rgb(0,122,77);fill-rule:nonzero;"/>
        </g>
        <g transform="matrix(18.333333,0,0,18.333333,451.154542,135.940598)">
            <path d="M0.327,0.006C0.27,0.006 0.221,-0.006 0.178,-0.029C0.135,-0.052 0.102,-0.084 0.078,-0.125C0.054,-0.166 0.042,-0.213 0.042,-0.265C0.042,-0.317 0.054,-0.364 0.077,-0.405C0.099,-0.445 0.131,-0.477 0.171,-0.5C0.212,-0.524 0.257,-0.535 0.308,-0.535C0.359,-0.535 0.404,-0.524 0.444,-0.501C0.483,-0.478 0.514,-0.446 0.537,-0.405C0.559,-0.365 0.57,-0.317 0.57,-0.262C0.57,-0.258 0.57,-0.254 0.57,-0.248C0.569,-0.243 0.569,-0.238 0.568,-0.233L0.117,-0.233L0.117,-0.302L0.518,-0.302L0.479,-0.278C0.48,-0.312 0.473,-0.343 0.458,-0.369C0.443,-0.395 0.423,-0.416 0.397,-0.431C0.372,-0.446 0.342,-0.454 0.308,-0.454C0.275,-0.454 0.245,-0.446 0.219,-0.431C0.193,-0.416 0.173,-0.395 0.158,-0.369C0.144,-0.342 0.136,-0.311 0.136,-0.276L0.136,-0.26C0.136,-0.224 0.144,-0.193 0.161,-0.166C0.177,-0.138 0.199,-0.117 0.229,-0.101C0.258,-0.086 0.292,-0.079 0.33,-0.079C0.361,-0.079 0.39,-0.084 0.416,-0.094C0.442,-0.105 0.464,-0.121 0.483,-0.142L0.536,-0.08C0.512,-0.052 0.482,-0.031 0.447,-0.016C0.411,-0.002 0.371,0.006 0.327,0.006ZM0.232,-0.607L0.368,-0.737L0.49,-0.737L0.322,-0.607L0.232,-0.607Z" style="fill:rgb(0,122,77);fill-rule:nonzero;"/>
        </g>
        <g transform="matrix(18.333333,0,0,18.333333,462.374542,135.940598)">
        </g>
        <g transform="matrix(18.333333,0,0,18.333333,467.306209,135.940598)">
            <path d="M0.421,0.008C0.367,0.008 0.318,-0.001 0.272,-0.018C0.227,-0.036 0.187,-0.061 0.154,-0.093C0.12,-0.126 0.094,-0.164 0.076,-0.207C0.057,-0.251 0.048,-0.298 0.048,-0.35C0.048,-0.402 0.057,-0.449 0.076,-0.493C0.094,-0.536 0.121,-0.574 0.154,-0.607C0.188,-0.639 0.228,-0.664 0.273,-0.682C0.319,-0.699 0.368,-0.708 0.423,-0.708C0.478,-0.708 0.529,-0.699 0.575,-0.681C0.621,-0.663 0.66,-0.636 0.692,-0.6L0.63,-0.537C0.601,-0.566 0.57,-0.587 0.536,-0.6C0.503,-0.612 0.466,-0.619 0.427,-0.619C0.387,-0.619 0.35,-0.612 0.315,-0.599C0.281,-0.586 0.252,-0.567 0.227,-0.543C0.202,-0.519 0.182,-0.49 0.169,-0.457C0.155,-0.425 0.148,-0.389 0.148,-0.35C0.148,-0.312 0.155,-0.276 0.169,-0.243C0.182,-0.211 0.202,-0.182 0.227,-0.158C0.252,-0.133 0.281,-0.114 0.315,-0.101C0.349,-0.088 0.386,-0.081 0.426,-0.081C0.463,-0.081 0.499,-0.087 0.533,-0.098C0.567,-0.11 0.599,-0.13 0.629,-0.157L0.686,-0.081C0.651,-0.052 0.611,-0.029 0.564,-0.014C0.518,0.001 0.47,0.008 0.421,0.008ZM0.686,-0.081L0.59,-0.094L0.59,-0.354L0.686,-0.354L0.686,-0.081Z" style="fill:rgb(0,122,77);fill-rule:nonzero;"/>
        </g>
        <g transform="matrix(18.333333,0,0,18.333333,481.459542,135.940598)">
            <path d="M0.314,0.006C0.269,0.006 0.229,-0.003 0.194,-0.019C0.16,-0.036 0.134,-0.061 0.115,-0.096C0.096,-0.13 0.086,-0.173 0.086,-0.225L0.086,-0.53L0.182,-0.53L0.182,-0.236C0.182,-0.184 0.195,-0.145 0.22,-0.119C0.244,-0.093 0.28,-0.08 0.325,-0.08C0.358,-0.08 0.387,-0.087 0.412,-0.101C0.436,-0.114 0.455,-0.134 0.469,-0.16C0.483,-0.187 0.489,-0.219 0.489,-0.256L0.489,-0.53L0.585,-0.53L0.585,-0L0.494,-0L0.494,-0.143L0.509,-0.105C0.492,-0.07 0.466,-0.043 0.431,-0.023C0.396,-0.004 0.357,0.006 0.314,0.006Z" style="fill:rgb(0,122,77);fill-rule:nonzero;"/>
        </g>
        <g transform="matrix(18.333333,0,0,18.333333,493.871209,135.940598)">
            <path d="M0.327,0.006C0.27,0.006 0.221,-0.006 0.178,-0.029C0.135,-0.052 0.102,-0.084 0.078,-0.125C0.054,-0.166 0.042,-0.213 0.042,-0.265C0.042,-0.317 0.054,-0.364 0.077,-0.405C0.099,-0.445 0.131,-0.477 0.171,-0.5C0.212,-0.524 0.257,-0.535 0.308,-0.535C0.359,-0.535 0.404,-0.524 0.444,-0.501C0.483,-0.478 0.514,-0.446 0.537,-0.405C0.559,-0.365 0.57,-0.317 0.57,-0.262C0.57,-0.258 0.57,-0.254 0.57,-0.248C0.569,-0.243 0.569,-0.238 0.568,-0.233L0.117,-0.233L0.117,-0.302L0.518,-0.302L0.479,-0.278C0.48,-0.312 0.473,-0.343 0.458,-0.369C0.443,-0.395 0.423,-0.416 0.397,-0.431C0.372,-0.446 0.342,-0.454 0.308,-0.454C0.275,-0.454 0.245,-0.446 0.219,-0.431C0.193,-0.416 0.173,-0.395 0.158,-0.369C0.144,-0.342 0.136,-0.311 0.136,-0.276L0.136,-0.26C0.136,-0.224 0.144,-0.193 0.161,-0.166C0.177,-0.138 0.199,-0.117 0.229,-0.101C0.258,-0.086 0.292,-0.079 0.33,-0.079C0.361,-0.079 0.39,-0.084 0.416,-0.094C0.442,-0.105 0.464,-0.121 0.483,-0.142L0.536,-0.08C0.512,-0.052 0.482,-0.031 0.447,-0.016C0.411,-0.002 0.371,0.006 0.327,0.006Z" style="fill:rgb(0,122,77);fill-rule:nonzero;"/>
        </g>
        <g transform="matrix(18.333333,0,0,18.333333,505.091209,135.940598)">
            <path d="M0.091,-0L0.091,-0.53L0.183,-0.53L0.183,-0.386L0.174,-0.422C0.189,-0.459 0.213,-0.487 0.248,-0.506C0.282,-0.526 0.325,-0.535 0.376,-0.535L0.376,-0.442C0.372,-0.442 0.368,-0.443 0.365,-0.443C0.361,-0.443 0.358,-0.443 0.354,-0.443C0.303,-0.443 0.262,-0.428 0.232,-0.397C0.202,-0.367 0.187,-0.322 0.187,-0.264L0.187,-0L0.091,-0Z" style="fill:rgb(0,122,77);fill-rule:nonzero;"/>
        </g>
        <g transform="matrix(18.333333,0,0,18.333333,512.479542,135.940598)">
            <path d="M0.091,-0L0.091,-0.53L0.183,-0.53L0.183,-0.386L0.174,-0.422C0.189,-0.459 0.213,-0.487 0.248,-0.506C0.282,-0.526 0.325,-0.535 0.376,-0.535L0.376,-0.442C0.372,-0.442 0.368,-0.443 0.365,-0.443C0.361,-0.443 0.358,-0.443 0.354,-0.443C0.303,-0.443 0.262,-0.428 0.232,-0.397C0.202,-0.367 0.187,-0.322 0.187,-0.264L0.187,-0L0.091,-0Z" style="fill:rgb(0,122,77);fill-rule:nonzero;"/>
        </g>
        <g transform="matrix(18.333333,0,0,18.333333,519.776209,135.940598)">
            <path d="M0.327,0.006C0.27,0.006 0.221,-0.006 0.178,-0.029C0.135,-0.052 0.102,-0.084 0.078,-0.125C0.054,-0.166 0.042,-0.213 0.042,-0.265C0.042,-0.317 0.054,-0.364 0.077,-0.405C0.099,-0.445 0.131,-0.477 0.171,-0.5C0.212,-0.524 0.257,-0.535 0.308,-0.535C0.359,-0.535 0.404,-0.524 0.444,-0.501C0.483,-0.478 0.514,-0.446 0.537,-0.405C0.559,-0.365 0.57,-0.317 0.57,-0.262C0.57,-0.258 0.57,-0.254 0.57,-0.248C0.569,-0.243 0.569,-0.238 0.568,-0.233L0.117,-0.233L0.117,-0.302L0.518,-0.302L0.479,-0.278C0.48,-0.312 0.473,-0.343 0.458,-0.369C0.443,-0.395 0.423,-0.416 0.397,-0.431C0.372,-0.446 0.342,-0.454 0.308,-0.454C0.275,-0.454 0.245,-0.446 0.219,-0.431C0.193,-0.416 0.173,-0.395 0.158,-0.369C0.144,-0.342 0.136,-0.311 0.136,-0.276L0.136,-0.26C0.136,-0.224 0.144,-0.193 0.161,-0.166C0.177,-0.138 0.199,-0.117 0.229,-0.101C0.258,-0.086 0.292,-0.079 0.33,-0.079C0.361,-0.079 0.39,-0.084 0.416,-0.094C0.442,-0.105 0.464,-0.121 0.483,-0.142L0.536,-0.08C0.512,-0.052 0.482,-0.031 0.447,-0.016C0.411,-0.002 0.371,0.006 0.327,0.006Z" style="fill:rgb(0,122,77);fill-rule:nonzero;"/>
        </g>
        <g transform="matrix(18.333333,0,0,18.333333,530.996209,135.940598)">
            <path d="M0.091,-0L0.091,-0.53L0.183,-0.53L0.183,-0.386L0.174,-0.422C0.189,-0.459 0.213,-0.487 0.248,-0.506C0.282,-0.526 0.325,-0.535 0.376,-0.535L0.376,-0.442C0.372,-0.442 0.368,-0.443 0.365,-0.443C0.361,-0.443 0.358,-0.443 0.354,-0.443C0.303,-0.443 0.262,-0.428 0.232,-0.397C0.202,-0.367 0.187,-0.322 0.187,-0.264L0.187,-0L0.091,-0Z" style="fill:rgb(0,122,77);fill-rule:nonzero;"/>
        </g>
        <g transform="matrix(18.333333,0,0,18.333333,538.292876,135.940598)">
            <path d="M0.318,0.006C0.265,0.006 0.218,-0.006 0.176,-0.029C0.135,-0.052 0.102,-0.084 0.078,-0.125C0.054,-0.166 0.042,-0.213 0.042,-0.265C0.042,-0.318 0.054,-0.365 0.078,-0.405C0.102,-0.446 0.135,-0.477 0.176,-0.5C0.217,-0.524 0.265,-0.535 0.318,-0.535C0.371,-0.535 0.418,-0.524 0.46,-0.501C0.501,-0.477 0.534,-0.446 0.558,-0.405C0.581,-0.365 0.593,-0.318 0.593,-0.265C0.593,-0.213 0.581,-0.166 0.558,-0.125C0.534,-0.084 0.501,-0.052 0.46,-0.029C0.418,-0.006 0.37,0.006 0.318,0.006ZM0.318,-0.079C0.352,-0.079 0.383,-0.086 0.41,-0.101C0.436,-0.117 0.458,-0.139 0.473,-0.167C0.489,-0.195 0.496,-0.228 0.496,-0.265C0.496,-0.303 0.489,-0.336 0.473,-0.364C0.458,-0.391 0.436,-0.413 0.41,-0.428C0.383,-0.444 0.352,-0.451 0.318,-0.451C0.284,-0.451 0.253,-0.444 0.227,-0.428C0.2,-0.413 0.179,-0.391 0.163,-0.364C0.147,-0.336 0.139,-0.303 0.139,-0.265C0.139,-0.228 0.147,-0.195 0.163,-0.167C0.179,-0.139 0.2,-0.117 0.227,-0.101C0.253,-0.086 0.284,-0.079 0.318,-0.079Z" style="fill:rgb(0,122,77);fill-rule:nonzero;"/>
        </g>
        <g transform="matrix(18.333333,0,0,18.333333,549.934542,135.940598)">
        </g>
        <g transform="matrix(18.333333,0,0,18.333333,241.256209,158.288931)">
            <path d="M0.31,0.006C0.259,0.006 0.213,-0.006 0.172,-0.028C0.132,-0.051 0.1,-0.083 0.077,-0.123C0.054,-0.164 0.042,-0.211 0.042,-0.265C0.042,-0.319 0.054,-0.366 0.077,-0.407C0.1,-0.447 0.132,-0.479 0.172,-0.501C0.213,-0.524 0.259,-0.535 0.31,-0.535C0.355,-0.535 0.395,-0.525 0.431,-0.505C0.467,-0.485 0.496,-0.455 0.518,-0.415C0.54,-0.375 0.55,-0.325 0.55,-0.265C0.55,-0.205 0.54,-0.155 0.519,-0.115C0.498,-0.075 0.469,-0.045 0.433,-0.025C0.397,-0.005 0.356,0.006 0.31,0.006ZM0.318,-0.079C0.352,-0.079 0.382,-0.086 0.409,-0.101C0.436,-0.117 0.457,-0.139 0.473,-0.167C0.488,-0.195 0.496,-0.228 0.496,-0.265C0.496,-0.303 0.488,-0.336 0.473,-0.364C0.457,-0.391 0.436,-0.413 0.409,-0.428C0.382,-0.444 0.352,-0.451 0.318,-0.451C0.284,-0.451 0.253,-0.444 0.227,-0.428C0.2,-0.413 0.179,-0.391 0.163,-0.364C0.147,-0.336 0.139,-0.303 0.139,-0.265C0.139,-0.228 0.147,-0.195 0.163,-0.167C0.179,-0.139 0.2,-0.117 0.227,-0.101C0.253,-0.086 0.284,-0.079 0.318,-0.079ZM0.499,-0L0.499,-0.143L0.505,-0.266L0.495,-0.389L0.495,-0.742L0.591,-0.742L0.591,-0L0.499,-0Z" style="fill:rgb(0,122,77);fill-rule:nonzero;"/>
        </g>
        <g transform="matrix(18.333333,0,0,18.333333,253.759542,158.288931)">
            <path d="M0.327,0.006C0.27,0.006 0.221,-0.006 0.178,-0.029C0.135,-0.052 0.102,-0.084 0.078,-0.125C0.054,-0.166 0.042,-0.213 0.042,-0.265C0.042,-0.317 0.054,-0.364 0.077,-0.405C0.099,-0.445 0.131,-0.477 0.171,-0.5C0.212,-0.524 0.257,-0.535 0.308,-0.535C0.359,-0.535 0.404,-0.524 0.444,-0.501C0.483,-0.478 0.514,-0.446 0.537,-0.405C0.559,-0.365 0.57,-0.317 0.57,-0.262C0.57,-0.258 0.57,-0.254 0.57,-0.248C0.569,-0.243 0.569,-0.238 0.568,-0.233L0.117,-0.233L0.117,-0.302L0.518,-0.302L0.479,-0.278C0.48,-0.312 0.473,-0.343 0.458,-0.369C0.443,-0.395 0.423,-0.416 0.397,-0.431C0.372,-0.446 0.342,-0.454 0.308,-0.454C0.275,-0.454 0.245,-0.446 0.219,-0.431C0.193,-0.416 0.173,-0.395 0.158,-0.369C0.144,-0.342 0.136,-0.311 0.136,-0.276L0.136,-0.26C0.136,-0.224 0.144,-0.193 0.161,-0.166C0.177,-0.138 0.199,-0.117 0.229,-0.101C0.258,-0.086 0.292,-0.079 0.33,-0.079C0.361,-0.079 0.39,-0.084 0.416,-0.094C0.442,-0.105 0.464,-0.121 0.483,-0.142L0.536,-0.08C0.512,-0.052 0.482,-0.031 0.447,-0.016C0.411,-0.002 0.371,0.006 0.327,0.006Z" style="fill:rgb(0,122,77);fill-rule:nonzero;"/>
        </g>
        <g transform="matrix(18.333333,0,0,18.333333,264.979542,158.288931)">
            <path d="M0.243,0.006C0.199,0.006 0.157,-0 0.117,-0.012C0.078,-0.024 0.046,-0.039 0.024,-0.056L0.064,-0.132C0.087,-0.116 0.115,-0.103 0.148,-0.093C0.182,-0.082 0.215,-0.077 0.25,-0.077C0.294,-0.077 0.327,-0.083 0.347,-0.096C0.366,-0.109 0.376,-0.127 0.376,-0.149C0.376,-0.166 0.37,-0.179 0.358,-0.188C0.346,-0.197 0.33,-0.204 0.31,-0.209C0.29,-0.214 0.269,-0.218 0.245,-0.222C0.221,-0.225 0.197,-0.23 0.173,-0.235C0.149,-0.241 0.127,-0.249 0.107,-0.26C0.087,-0.27 0.071,-0.284 0.059,-0.303C0.047,-0.321 0.041,-0.346 0.041,-0.376C0.041,-0.408 0.05,-0.436 0.068,-0.46C0.086,-0.484 0.112,-0.502 0.144,-0.515C0.177,-0.529 0.217,-0.535 0.262,-0.535C0.297,-0.535 0.332,-0.531 0.368,-0.522C0.403,-0.514 0.432,-0.502 0.455,-0.487L0.414,-0.411C0.39,-0.427 0.365,-0.438 0.339,-0.444C0.313,-0.45 0.287,-0.453 0.261,-0.453C0.219,-0.453 0.188,-0.446 0.167,-0.433C0.147,-0.419 0.136,-0.402 0.136,-0.38C0.136,-0.362 0.142,-0.348 0.154,-0.339C0.167,-0.329 0.183,-0.322 0.202,-0.316C0.222,-0.311 0.244,-0.306 0.268,-0.303C0.292,-0.299 0.316,-0.294 0.34,-0.289C0.364,-0.283 0.386,-0.275 0.405,-0.265C0.425,-0.255 0.441,-0.241 0.453,-0.223C0.466,-0.205 0.472,-0.181 0.472,-0.151C0.472,-0.119 0.462,-0.091 0.444,-0.068C0.425,-0.044 0.399,-0.026 0.365,-0.014C0.331,-0.001 0.291,0.006 0.243,0.006Z" style="fill:rgb(0,122,77);fill-rule:nonzero;"/>
        </g>
        <g transform="matrix(18.333333,0,0,18.333333,274.164542,158.288931)">
            <path d="M0.31,0.006C0.259,0.006 0.213,-0.006 0.172,-0.028C0.132,-0.051 0.1,-0.083 0.077,-0.123C0.054,-0.164 0.042,-0.211 0.042,-0.265C0.042,-0.319 0.054,-0.366 0.077,-0.407C0.1,-0.447 0.132,-0.479 0.172,-0.501C0.213,-0.524 0.259,-0.535 0.31,-0.535C0.355,-0.535 0.395,-0.525 0.431,-0.505C0.467,-0.485 0.496,-0.455 0.518,-0.415C0.54,-0.375 0.55,-0.325 0.55,-0.265C0.55,-0.205 0.54,-0.155 0.519,-0.115C0.498,-0.075 0.469,-0.045 0.433,-0.025C0.397,-0.005 0.356,0.006 0.31,0.006ZM0.318,-0.079C0.352,-0.079 0.382,-0.086 0.409,-0.101C0.436,-0.117 0.457,-0.139 0.473,-0.167C0.488,-0.195 0.496,-0.228 0.496,-0.265C0.496,-0.303 0.488,-0.336 0.473,-0.364C0.457,-0.391 0.436,-0.413 0.409,-0.428C0.382,-0.444 0.352,-0.451 0.318,-0.451C0.284,-0.451 0.253,-0.444 0.227,-0.428C0.2,-0.413 0.179,-0.391 0.163,-0.364C0.147,-0.336 0.139,-0.303 0.139,-0.265C0.139,-0.228 0.147,-0.195 0.163,-0.167C0.179,-0.139 0.2,-0.117 0.227,-0.101C0.253,-0.086 0.284,-0.079 0.318,-0.079ZM0.499,-0L0.499,-0.143L0.505,-0.266L0.495,-0.389L0.495,-0.742L0.591,-0.742L0.591,-0L0.499,-0Z" style="fill:rgb(0,122,77);fill-rule:nonzero;"/>
        </g>
        <g transform="matrix(18.333333,0,0,18.333333,286.667876,158.288931)">
            <path d="M0.327,0.006C0.27,0.006 0.221,-0.006 0.178,-0.029C0.135,-0.052 0.102,-0.084 0.078,-0.125C0.054,-0.166 0.042,-0.213 0.042,-0.265C0.042,-0.317 0.054,-0.364 0.077,-0.405C0.099,-0.445 0.131,-0.477 0.171,-0.5C0.212,-0.524 0.257,-0.535 0.308,-0.535C0.359,-0.535 0.404,-0.524 0.444,-0.501C0.483,-0.478 0.514,-0.446 0.537,-0.405C0.559,-0.365 0.57,-0.317 0.57,-0.262C0.57,-0.258 0.57,-0.254 0.57,-0.248C0.569,-0.243 0.569,-0.238 0.568,-0.233L0.117,-0.233L0.117,-0.302L0.518,-0.302L0.479,-0.278C0.48,-0.312 0.473,-0.343 0.458,-0.369C0.443,-0.395 0.423,-0.416 0.397,-0.431C0.372,-0.446 0.342,-0.454 0.308,-0.454C0.275,-0.454 0.245,-0.446 0.219,-0.431C0.193,-0.416 0.173,-0.395 0.158,-0.369C0.144,-0.342 0.136,-0.311 0.136,-0.276L0.136,-0.26C0.136,-0.224 0.144,-0.193 0.161,-0.166C0.177,-0.138 0.199,-0.117 0.229,-0.101C0.258,-0.086 0.292,-0.079 0.33,-0.079C0.361,-0.079 0.39,-0.084 0.416,-0.094C0.442,-0.105 0.464,-0.121 0.483,-0.142L0.536,-0.08C0.512,-0.052 0.482,-0.031 0.447,-0.016C0.411,-0.002 0.371,0.006 0.327,0.006Z" style="fill:rgb(0,122,77);fill-rule:nonzero;"/>
        </g>
        <g transform="matrix(18.333333,0,0,18.333333,297.887876,158.288931)">
        </g>
        <g transform="matrix(18.333333,0,0,18.333333,302.819542,158.288931)">
            <path d="M0.105,-0L0.105,-0.7L0.187,-0.7L0.501,-0.171L0.457,-0.171L0.767,-0.7L0.849,-0.7L0.85,-0L0.754,-0L0.753,-0.549L0.776,-0.549L0.5,-0.085L0.454,-0.085L0.176,-0.549L0.201,-0.549L0.201,-0L0.105,-0Z" style="fill:rgb(0,122,77);fill-rule:nonzero;"/>
        </g>
        <g transform="matrix(18.333333,0,0,18.333333,320.327876,158.288931)">
            <path d="M0.42,-0L0.42,-0.112L0.415,-0.133L0.415,-0.324C0.415,-0.365 0.404,-0.396 0.38,-0.419C0.356,-0.441 0.321,-0.452 0.273,-0.452C0.241,-0.452 0.211,-0.447 0.181,-0.437C0.151,-0.426 0.126,-0.413 0.105,-0.395L0.065,-0.467C0.092,-0.489 0.125,-0.506 0.164,-0.518C0.202,-0.529 0.242,-0.535 0.284,-0.535C0.357,-0.535 0.413,-0.517 0.452,-0.482C0.492,-0.447 0.511,-0.392 0.511,-0.32L0.511,-0L0.42,-0ZM0.246,0.006C0.207,0.006 0.172,-0.001 0.142,-0.014C0.113,-0.027 0.09,-0.046 0.074,-0.069C0.058,-0.093 0.05,-0.12 0.05,-0.15C0.05,-0.179 0.057,-0.205 0.07,-0.228C0.084,-0.251 0.106,-0.27 0.137,-0.284C0.169,-0.298 0.21,-0.305 0.263,-0.305L0.431,-0.305L0.431,-0.236L0.267,-0.236C0.219,-0.236 0.187,-0.228 0.17,-0.212C0.153,-0.196 0.145,-0.177 0.145,-0.154C0.145,-0.128 0.155,-0.107 0.176,-0.091C0.197,-0.076 0.226,-0.068 0.262,-0.068C0.298,-0.068 0.33,-0.076 0.357,-0.092C0.384,-0.108 0.403,-0.132 0.415,-0.162L0.434,-0.096C0.421,-0.064 0.399,-0.04 0.367,-0.021C0.335,-0.003 0.295,0.006 0.246,0.006Z" style="fill:rgb(0,122,77);fill-rule:nonzero;"/>
        </g>
        <g transform="matrix(18.333333,0,0,18.333333,331.291209,158.288931)">
            <path d="M0.091,-0L0.091,-0.53L0.183,-0.53L0.183,-0.386L0.174,-0.422C0.189,-0.459 0.213,-0.487 0.248,-0.506C0.282,-0.526 0.325,-0.535 0.376,-0.535L0.376,-0.442C0.372,-0.442 0.368,-0.443 0.365,-0.443C0.361,-0.443 0.358,-0.443 0.354,-0.443C0.303,-0.443 0.262,-0.428 0.232,-0.397C0.202,-0.367 0.187,-0.322 0.187,-0.264L0.187,-0L0.091,-0Z" style="fill:rgb(0,122,77);fill-rule:nonzero;"/>
        </g>
        <g transform="matrix(18.333333,0,0,18.333333,338.679542,158.288931)">
            <path d="M0.372,0.006C0.327,0.006 0.286,-0.005 0.25,-0.025C0.213,-0.045 0.184,-0.075 0.163,-0.115C0.142,-0.155 0.132,-0.205 0.132,-0.265C0.132,-0.325 0.142,-0.375 0.164,-0.415C0.186,-0.455 0.215,-0.485 0.251,-0.505C0.288,-0.525 0.328,-0.535 0.372,-0.535C0.424,-0.535 0.47,-0.524 0.51,-0.501C0.55,-0.479 0.582,-0.447 0.605,-0.407C0.628,-0.366 0.64,-0.319 0.64,-0.265C0.64,-0.211 0.628,-0.164 0.605,-0.123C0.582,-0.083 0.55,-0.051 0.51,-0.028C0.47,-0.006 0.424,0.006 0.372,0.006ZM0.091,-0L0.091,-0.742L0.187,-0.742L0.187,-0.389L0.177,-0.266L0.183,-0.143L0.183,-0L0.091,-0ZM0.364,-0.079C0.398,-0.079 0.429,-0.086 0.455,-0.101C0.482,-0.117 0.504,-0.139 0.519,-0.167C0.535,-0.195 0.543,-0.228 0.543,-0.265C0.543,-0.303 0.535,-0.336 0.519,-0.364C0.504,-0.391 0.482,-0.413 0.455,-0.428C0.429,-0.444 0.398,-0.451 0.364,-0.451C0.33,-0.451 0.3,-0.444 0.273,-0.428C0.246,-0.413 0.225,-0.391 0.209,-0.364C0.194,-0.336 0.186,-0.303 0.186,-0.265C0.186,-0.228 0.194,-0.195 0.209,-0.167C0.225,-0.139 0.246,-0.117 0.273,-0.101C0.3,-0.086 0.33,-0.079 0.364,-0.079Z" style="fill:rgb(0,122,77);fill-rule:nonzero;"/>
        </g>
        <g transform="matrix(18.333333,0,0,18.333333,351.182876,158.288931)">
            <path d="M0.327,0.006C0.27,0.006 0.221,-0.006 0.178,-0.029C0.135,-0.052 0.102,-0.084 0.078,-0.125C0.054,-0.166 0.042,-0.213 0.042,-0.265C0.042,-0.317 0.054,-0.364 0.077,-0.405C0.099,-0.445 0.131,-0.477 0.171,-0.5C0.212,-0.524 0.257,-0.535 0.308,-0.535C0.359,-0.535 0.404,-0.524 0.444,-0.501C0.483,-0.478 0.514,-0.446 0.537,-0.405C0.559,-0.365 0.57,-0.317 0.57,-0.262C0.57,-0.258 0.57,-0.254 0.57,-0.248C0.569,-0.243 0.569,-0.238 0.568,-0.233L0.117,-0.233L0.117,-0.302L0.518,-0.302L0.479,-0.278C0.48,-0.312 0.473,-0.343 0.458,-0.369C0.443,-0.395 0.423,-0.416 0.397,-0.431C0.372,-0.446 0.342,-0.454 0.308,-0.454C0.275,-0.454 0.245,-0.446 0.219,-0.431C0.193,-0.416 0.173,-0.395 0.158,-0.369C0.144,-0.342 0.136,-0.311 0.136,-0.276L0.136,-0.26C0.136,-0.224 0.144,-0.193 0.161,-0.166C0.177,-0.138 0.199,-0.117 0.229,-0.101C0.258,-0.086 0.292,-0.079 0.33,-0.079C0.361,-0.079 0.39,-0.084 0.416,-0.094C0.442,-0.105 0.464,-0.121 0.483,-0.142L0.536,-0.08C0.512,-0.052 0.482,-0.031 0.447,-0.016C0.411,-0.002 0.371,0.006 0.327,0.006Z" style="fill:rgb(0,122,77);fill-rule:nonzero;"/>
        </g>
        <g transform="matrix(18.333333,0,0,18.333333,362.402876,158.288931)">
            <rect x="0.091" y="-0.742" width="0.096" height="0.742" style="fill:rgb(0,122,77);fill-rule:nonzero;"/>
        </g>
        <g transform="matrix(18.333333,0,0,18.333333,367.517876,158.288931)">
            <rect x="0.091" y="-0.742" width="0.096" height="0.742" style="fill:rgb(0,122,77);fill-rule:nonzero;"/>
        </g>
        <g transform="matrix(18.333333,0,0,18.333333,372.632876,158.288931)">
            <path d="M0.42,-0L0.42,-0.112L0.415,-0.133L0.415,-0.324C0.415,-0.365 0.404,-0.396 0.38,-0.419C0.356,-0.441 0.321,-0.452 0.273,-0.452C0.241,-0.452 0.211,-0.447 0.181,-0.437C0.151,-0.426 0.126,-0.413 0.105,-0.395L0.065,-0.467C0.092,-0.489 0.125,-0.506 0.164,-0.518C0.202,-0.529 0.242,-0.535 0.284,-0.535C0.357,-0.535 0.413,-0.517 0.452,-0.482C0.492,-0.447 0.511,-0.392 0.511,-0.32L0.511,-0L0.42,-0ZM0.246,0.006C0.207,0.006 0.172,-0.001 0.142,-0.014C0.113,-0.027 0.09,-0.046 0.074,-0.069C0.058,-0.093 0.05,-0.12 0.05,-0.15C0.05,-0.179 0.057,-0.205 0.07,-0.228C0.084,-0.251 0.106,-0.27 0.137,-0.284C0.169,-0.298 0.21,-0.305 0.263,-0.305L0.431,-0.305L0.431,-0.236L0.267,-0.236C0.219,-0.236 0.187,-0.228 0.17,-0.212C0.153,-0.196 0.145,-0.177 0.145,-0.154C0.145,-0.128 0.155,-0.107 0.176,-0.091C0.197,-0.076 0.226,-0.068 0.262,-0.068C0.298,-0.068 0.33,-0.076 0.357,-0.092C0.384,-0.108 0.403,-0.132 0.415,-0.162L0.434,-0.096C0.421,-0.064 0.399,-0.04 0.367,-0.021C0.335,-0.003 0.295,0.006 0.246,0.006Z" style="fill:rgb(0,122,77);fill-rule:nonzero;"/>
        </g>
        <g transform="matrix(18.333333,0,0,18.333333,383.596209,158.288931)">
        </g>
        <g transform="matrix(18.333333,0,0,18.333333,388.527876,158.288931)">
            <path d="M0.214,0.194C0.176,0.133 0.146,0.063 0.126,-0.016C0.105,-0.096 0.095,-0.182 0.095,-0.274C0.095,-0.366 0.105,-0.452 0.126,-0.533C0.146,-0.613 0.176,-0.683 0.214,-0.742L0.305,-0.742C0.265,-0.671 0.236,-0.597 0.217,-0.521C0.199,-0.444 0.189,-0.362 0.189,-0.274C0.189,-0.186 0.199,-0.104 0.217,-0.027C0.236,0.049 0.265,0.123 0.305,0.194L0.214,0.194Z" style="fill:rgb(0,122,77);fill-rule:nonzero;"/>
        </g>
        <g transform="matrix(18.333333,0,0,18.333333,394.706209,158.288931)">
            <path d="M0.105,-0L0.105,-0.7L0.187,-0.7L0.501,-0.171L0.457,-0.171L0.767,-0.7L0.849,-0.7L0.85,-0L0.754,-0L0.753,-0.549L0.776,-0.549L0.5,-0.085L0.454,-0.085L0.176,-0.549L0.201,-0.549L0.201,-0L0.105,-0Z" style="fill:rgb(0,122,77);fill-rule:nonzero;"/>
        </g>
        <g transform="matrix(18.333333,0,0,18.333333,412.214542,158.288931)">
            <path d="M0.42,-0L0.42,-0.112L0.415,-0.133L0.415,-0.324C0.415,-0.365 0.404,-0.396 0.38,-0.419C0.356,-0.441 0.321,-0.452 0.273,-0.452C0.241,-0.452 0.211,-0.447 0.181,-0.437C0.151,-0.426 0.126,-0.413 0.105,-0.395L0.065,-0.467C0.092,-0.489 0.125,-0.506 0.164,-0.518C0.202,-0.529 0.242,-0.535 0.284,-0.535C0.357,-0.535 0.413,-0.517 0.452,-0.482C0.492,-0.447 0.511,-0.392 0.511,-0.32L0.511,-0L0.42,-0ZM0.246,0.006C0.207,0.006 0.172,-0.001 0.142,-0.014C0.113,-0.027 0.09,-0.046 0.074,-0.069C0.058,-0.093 0.05,-0.12 0.05,-0.15C0.05,-0.179 0.057,-0.205 0.07,-0.228C0.084,-0.251 0.106,-0.27 0.137,-0.284C0.169,-0.298 0.21,-0.305 0.263,-0.305L0.431,-0.305L0.431,-0.236L0.267,-0.236C0.219,-0.236 0.187,-0.228 0.17,-0.212C0.153,-0.196 0.145,-0.177 0.145,-0.154C0.145,-0.128 0.155,-0.107 0.176,-0.091C0.197,-0.076 0.226,-0.068 0.262,-0.068C0.298,-0.068 0.33,-0.076 0.357,-0.092C0.384,-0.108 0.403,-0.132 0.415,-0.162L0.434,-0.096C0.421,-0.064 0.399,-0.04 0.367,-0.021C0.335,-0.003 0.295,0.006 0.246,0.006ZM0.216,-0.607L0.352,-0.737L0.474,-0.737L0.306,-0.607L0.216,-0.607Z" style="fill:rgb(0,122,77);fill-rule:nonzero;"/>
        </g>
        <g transform="matrix(18.333333,0,0,18.333333,423.177876,158.288931)">
            <rect x="0.091" y="-0.742" width="0.096" height="0.742" style="fill:rgb(0,122,77);fill-rule:nonzero;"/>
        </g>
        <g transform="matrix(18.333333,0,0,18.333333,428.292876,158.288931)">
            <path d="M0.42,-0L0.42,-0.112L0.415,-0.133L0.415,-0.324C0.415,-0.365 0.404,-0.396 0.38,-0.419C0.356,-0.441 0.321,-0.452 0.273,-0.452C0.241,-0.452 0.211,-0.447 0.181,-0.437C0.151,-0.426 0.126,-0.413 0.105,-0.395L0.065,-0.467C0.092,-0.489 0.125,-0.506 0.164,-0.518C0.202,-0.529 0.242,-0.535 0.284,-0.535C0.357,-0.535 0.413,-0.517 0.452,-0.482C0.492,-0.447 0.511,-0.392 0.511,-0.32L0.511,-0L0.42,-0ZM0.246,0.006C0.207,0.006 0.172,-0.001 0.142,-0.014C0.113,-0.027 0.09,-0.046 0.074,-0.069C0.058,-0.093 0.05,-0.12 0.05,-0.15C0.05,-0.179 0.057,-0.205 0.07,-0.228C0.084,-0.251 0.106,-0.27 0.137,-0.284C0.169,-0.298 0.21,-0.305 0.263,-0.305L0.431,-0.305L0.431,-0.236L0.267,-0.236C0.219,-0.236 0.187,-0.228 0.17,-0.212C0.153,-0.196 0.145,-0.177 0.145,-0.154C0.145,-0.128 0.155,-0.107 0.176,-0.091C0.197,-0.076 0.226,-0.068 0.262,-0.068C0.298,-0.068 0.33,-0.076 0.357,-0.092C0.384,-0.108 0.403,-0.132 0.415,-0.162L0.434,-0.096C0.421,-0.064 0.399,-0.04 0.367,-0.021C0.335,-0.003 0.295,0.006 0.246,0.006Z" style="fill:rgb(0,122,77);fill-rule:nonzero;"/>
        </g>
        <g transform="matrix(18.333333,0,0,18.333333,439.256209,158.288931)">
            <path d="M0.323,0.2C0.275,0.2 0.228,0.193 0.182,0.179C0.136,0.166 0.099,0.147 0.07,0.121L0.116,0.047C0.141,0.068 0.171,0.085 0.207,0.097C0.243,0.109 0.281,0.116 0.32,0.116C0.382,0.116 0.429,0.101 0.458,0.072C0.488,0.043 0.502,-0.002 0.502,-0.062L0.502,-0.174L0.512,-0.279L0.507,-0.385L0.507,-0.53L0.598,-0.53L0.598,-0.072C0.598,0.021 0.575,0.09 0.528,0.134C0.482,0.178 0.413,0.2 0.323,0.2ZM0.311,-0.022C0.26,-0.022 0.214,-0.033 0.173,-0.055C0.133,-0.076 0.101,-0.106 0.077,-0.145C0.054,-0.183 0.042,-0.228 0.042,-0.279C0.042,-0.33 0.054,-0.375 0.077,-0.413C0.101,-0.452 0.133,-0.482 0.173,-0.503C0.214,-0.525 0.26,-0.535 0.311,-0.535C0.357,-0.535 0.398,-0.526 0.435,-0.507C0.472,-0.489 0.502,-0.461 0.524,-0.423C0.547,-0.385 0.558,-0.337 0.558,-0.279C0.558,-0.221 0.547,-0.174 0.524,-0.136C0.502,-0.098 0.472,-0.069 0.435,-0.05C0.398,-0.031 0.357,-0.022 0.311,-0.022ZM0.322,-0.106C0.357,-0.106 0.389,-0.113 0.416,-0.128C0.444,-0.143 0.465,-0.163 0.481,-0.189C0.496,-0.215 0.504,-0.245 0.504,-0.279C0.504,-0.313 0.496,-0.343 0.481,-0.369C0.465,-0.395 0.444,-0.415 0.416,-0.43C0.389,-0.444 0.357,-0.451 0.322,-0.451C0.286,-0.451 0.255,-0.444 0.227,-0.43C0.2,-0.415 0.178,-0.395 0.162,-0.369C0.147,-0.343 0.139,-0.313 0.139,-0.279C0.139,-0.245 0.147,-0.215 0.162,-0.189C0.178,-0.163 0.2,-0.143 0.227,-0.128C0.255,-0.113 0.286,-0.106 0.322,-0.106Z" style="fill:rgb(0,122,77);fill-rule:nonzero;"/>
        </g>
        <g transform="matrix(18.333333,0,0,18.333333,451.906209,158.288931)">
            <path d="M0.42,-0L0.42,-0.112L0.415,-0.133L0.415,-0.324C0.415,-0.365 0.404,-0.396 0.38,-0.419C0.356,-0.441 0.321,-0.452 0.273,-0.452C0.241,-0.452 0.211,-0.447 0.181,-0.437C0.151,-0.426 0.126,-0.413 0.105,-0.395L0.065,-0.467C0.092,-0.489 0.125,-0.506 0.164,-0.518C0.202,-0.529 0.242,-0.535 0.284,-0.535C0.357,-0.535 0.413,-0.517 0.452,-0.482C0.492,-0.447 0.511,-0.392 0.511,-0.32L0.511,-0L0.42,-0ZM0.246,0.006C0.207,0.006 0.172,-0.001 0.142,-0.014C0.113,-0.027 0.09,-0.046 0.074,-0.069C0.058,-0.093 0.05,-0.12 0.05,-0.15C0.05,-0.179 0.057,-0.205 0.07,-0.228C0.084,-0.251 0.106,-0.27 0.137,-0.284C0.169,-0.298 0.21,-0.305 0.263,-0.305L0.431,-0.305L0.431,-0.236L0.267,-0.236C0.219,-0.236 0.187,-0.228 0.17,-0.212C0.153,-0.196 0.145,-0.177 0.145,-0.154C0.145,-0.128 0.155,-0.107 0.176,-0.091C0.197,-0.076 0.226,-0.068 0.262,-0.068C0.298,-0.068 0.33,-0.076 0.357,-0.092C0.384,-0.108 0.403,-0.132 0.415,-0.162L0.434,-0.096C0.421,-0.064 0.399,-0.04 0.367,-0.021C0.335,-0.003 0.295,0.006 0.246,0.006Z" style="fill:rgb(0,122,77);fill-rule:nonzero;"/>
        </g>
        <g transform="matrix(18.333333,0,0,18.333333,462.869542,158.288931)">
            <path d="M0.032,0.194C0.073,0.123 0.102,0.049 0.121,-0.027C0.139,-0.104 0.149,-0.186 0.149,-0.274C0.149,-0.362 0.139,-0.444 0.121,-0.521C0.102,-0.597 0.073,-0.671 0.032,-0.742L0.123,-0.742C0.162,-0.683 0.192,-0.613 0.212,-0.533C0.233,-0.452 0.243,-0.366 0.243,-0.274C0.243,-0.182 0.233,-0.096 0.212,-0.016C0.192,0.063 0.162,0.133 0.123,0.194L0.032,0.194Z" style="fill:rgb(0,122,77);fill-rule:nonzero;"/>
        </g>
        <g transform="matrix(18.333333,0,0,18.333333,469.066209,158.288931)">
        </g>
    </g>
</svg>
