<?xml version="1.0" encoding="UTF-8" standalone="no"?>
<!DOCTYPE svg PUBLIC "-//W3C//DTD SVG 1.1//EN" "http://www.w3.org/Graphics/SVG/1.1/DTD/svg11.dtd">
<svg width="100%" height="100%" viewBox="0 0 550 100" version="1.1" xmlns="http://www.w3.org/2000/svg" xmlns:xlink="http://www.w3.org/1999/xlink" xml:space="preserve" xmlns:serif="http://www.serif.com/" style="fill-rule:evenodd;clip-rule:evenodd;stroke-linecap:round;stroke-linejoin:round;stroke-miterlimit:1.5;">
    <g transform="matrix(0.185169,0,0,0.185169,63.840949,50)">
        <g transform="matrix(1,0,0,1,-300,-300)">
            <g transform="matrix(0.782438,0,0,0.782438,65.268676,65.268676)">
                <path d="M300,0L600,300L300,600L0,300L300,0Z" style="fill:none;stroke:rgb(0,122,77);stroke-width:10.65px;"/>
            </g>
            <g transform="matrix(0.986644,0,0,0.986644,20.871286,-12.852679)">
                <rect x="164.351" y="200.524" width="235.518" height="235.518" style="fill:none;stroke:rgb(0,122,77);stroke-width:8.45px;"/>
            </g>
            <g transform="matrix(1,0,0,1,2.162516,-6.290957)">
                <circle cx="297.837" cy="249.083" r="26.54" style="fill:none;stroke:rgb(0,122,77);stroke-width:8.33px;"/>
            </g>
            <g transform="matrix(0,2.314629,-2.314629,0,1074.093067,-275.790624)">
                <g transform="matrix(74.650971,0,0,74.650971,294.763164,361.730013)">
                </g>
                <text x="236.697px" y="361.73px" style="font-family:'CenturySchoolbook', 'Century Schoolbook', serif;font-size:74.651px;fill:rgb(0,122,77);">D</text>
            </g>
            <g transform="matrix(1,0,0,1,-1.965924,1.179554)">
                <rect x="292.529" y="269.332" width="18.873" height="30.668" style="fill:rgb(0,122,77);stroke:rgb(0,122,77);stroke-width:6.25px;"/>
            </g>
        </g>
    </g>
    <g transform="matrix(1.208007,0,0,1.208007,-168.694893,-93.286436)">
        <g transform="matrix(40.833333,0,0,40.833333,241.256209,118.613866)">
            <path d="M0.333,-0.708C0.461,-0.708 0.556,-0.678 0.618,-0.619C0.679,-0.559 0.71,-0.473 0.71,-0.362C0.71,-0.289 0.695,-0.226 0.665,-0.172C0.635,-0.117 0.591,-0.075 0.533,-0.045C0.475,-0.015 0.406,-0 0.324,-0C0.314,-0 0.3,-0 0.283,-0.001C0.266,-0.002 0.249,-0.002 0.23,-0.003C0.212,-0.003 0.195,-0.003 0.18,-0.003C0.153,-0.003 0.126,-0.003 0.1,-0.003C0.074,-0.002 0.053,-0.001 0.036,-0L0.036,-0.02C0.058,-0.021 0.075,-0.024 0.086,-0.028C0.097,-0.032 0.104,-0.04 0.108,-0.052C0.112,-0.064 0.113,-0.082 0.113,-0.106L0.113,-0.602C0.113,-0.627 0.112,-0.645 0.108,-0.656C0.104,-0.668 0.097,-0.676 0.086,-0.68C0.074,-0.685 0.058,-0.687 0.036,-0.688L0.036,-0.708C0.053,-0.707 0.074,-0.707 0.1,-0.706C0.126,-0.705 0.152,-0.704 0.178,-0.705C0.202,-0.706 0.229,-0.706 0.259,-0.707C0.289,-0.708 0.314,-0.708 0.333,-0.708ZM0.324,-0.69C0.294,-0.69 0.274,-0.684 0.264,-0.673C0.255,-0.662 0.25,-0.639 0.25,-0.604L0.25,-0.104C0.25,-0.069 0.255,-0.046 0.265,-0.035C0.275,-0.024 0.295,-0.018 0.325,-0.018C0.387,-0.018 0.435,-0.031 0.47,-0.058C0.505,-0.084 0.53,-0.122 0.545,-0.173C0.559,-0.224 0.566,-0.285 0.566,-0.358C0.566,-0.433 0.559,-0.494 0.543,-0.543C0.527,-0.592 0.501,-0.629 0.466,-0.653C0.431,-0.678 0.384,-0.69 0.324,-0.69Z" style="fill:rgb(0,122,77);fill-rule:nonzero;"/>
        </g>
        <g transform="matrix(40.833333,0,0,40.833333,272.616209,118.613866)">
            <path d="M0.278,-0.531C0.337,-0.531 0.383,-0.513 0.416,-0.478C0.45,-0.443 0.466,-0.386 0.466,-0.309L0.129,-0.309L0.128,-0.328L0.35,-0.328C0.351,-0.361 0.349,-0.391 0.344,-0.418C0.338,-0.446 0.33,-0.468 0.319,-0.485C0.307,-0.502 0.292,-0.51 0.273,-0.51C0.248,-0.51 0.225,-0.495 0.207,-0.465C0.188,-0.436 0.177,-0.387 0.172,-0.32L0.176,-0.314C0.175,-0.305 0.174,-0.296 0.174,-0.286C0.173,-0.276 0.173,-0.266 0.173,-0.256C0.173,-0.21 0.18,-0.172 0.193,-0.142C0.207,-0.112 0.224,-0.09 0.245,-0.076C0.267,-0.062 0.288,-0.055 0.311,-0.055C0.327,-0.055 0.342,-0.057 0.358,-0.062C0.374,-0.067 0.39,-0.076 0.405,-0.088C0.421,-0.101 0.435,-0.119 0.447,-0.142L0.466,-0.134C0.459,-0.111 0.446,-0.087 0.429,-0.064C0.412,-0.041 0.39,-0.022 0.364,-0.008C0.338,0.007 0.306,0.014 0.27,0.014C0.225,0.014 0.184,0.004 0.15,-0.016C0.115,-0.036 0.088,-0.066 0.069,-0.105C0.05,-0.145 0.04,-0.193 0.04,-0.251C0.04,-0.311 0.05,-0.363 0.07,-0.404C0.091,-0.446 0.119,-0.477 0.155,-0.498C0.191,-0.52 0.232,-0.531 0.278,-0.531Z" style="fill:rgb(0,122,77);fill-rule:nonzero;"/>
        </g>
        <g transform="matrix(40.833333,0,0,40.833333,293.645376,118.613866)">
            <path d="M0.217,-0.531C0.245,-0.531 0.269,-0.527 0.289,-0.519C0.309,-0.511 0.324,-0.504 0.333,-0.498C0.356,-0.481 0.369,-0.492 0.374,-0.53L0.396,-0.53C0.395,-0.511 0.394,-0.488 0.393,-0.462C0.392,-0.435 0.392,-0.4 0.392,-0.356L0.37,-0.356C0.367,-0.38 0.36,-0.404 0.351,-0.428C0.341,-0.452 0.328,-0.471 0.31,-0.486C0.292,-0.502 0.268,-0.51 0.239,-0.51C0.219,-0.51 0.201,-0.504 0.188,-0.492C0.174,-0.48 0.167,-0.463 0.167,-0.441C0.167,-0.421 0.173,-0.404 0.185,-0.389C0.197,-0.374 0.212,-0.36 0.231,-0.347C0.25,-0.334 0.27,-0.319 0.291,-0.304C0.315,-0.288 0.336,-0.272 0.355,-0.255C0.374,-0.239 0.389,-0.221 0.4,-0.201C0.411,-0.182 0.417,-0.158 0.417,-0.132C0.417,-0.101 0.408,-0.075 0.391,-0.053C0.374,-0.032 0.352,-0.015 0.325,-0.003C0.297,0.008 0.267,0.014 0.233,0.014C0.215,0.014 0.199,0.012 0.184,0.009C0.169,0.005 0.156,0.001 0.145,-0.004C0.137,-0.009 0.129,-0.013 0.121,-0.017C0.114,-0.021 0.107,-0.024 0.1,-0.027C0.094,-0.031 0.088,-0.029 0.083,-0.023C0.078,-0.017 0.074,-0.007 0.071,0.007L0.049,0.007C0.051,-0.014 0.052,-0.04 0.052,-0.071C0.053,-0.102 0.053,-0.142 0.053,-0.193L0.075,-0.193C0.079,-0.156 0.087,-0.124 0.096,-0.097C0.106,-0.069 0.12,-0.047 0.139,-0.032C0.158,-0.016 0.182,-0.008 0.211,-0.008C0.223,-0.008 0.235,-0.011 0.247,-0.016C0.259,-0.021 0.268,-0.029 0.276,-0.041C0.284,-0.053 0.288,-0.068 0.288,-0.087C0.288,-0.116 0.278,-0.141 0.258,-0.16C0.238,-0.179 0.213,-0.2 0.183,-0.222C0.16,-0.238 0.139,-0.255 0.12,-0.271C0.1,-0.287 0.084,-0.305 0.072,-0.325C0.059,-0.345 0.053,-0.369 0.053,-0.396C0.053,-0.426 0.061,-0.451 0.076,-0.471C0.091,-0.49 0.112,-0.505 0.137,-0.515C0.162,-0.526 0.189,-0.531 0.217,-0.531Z" style="fill:rgb(0,122,77);fill-rule:nonzero;"/>
        </g>
        <g transform="matrix(40.833333,0,0,40.833333,312.714542,118.613866)">
            <path d="M0.214,-0.527L0.214,0.084C0.214,0.114 0.223,0.135 0.239,0.145C0.255,0.155 0.278,0.16 0.306,0.16L0.306,0.181C0.29,0.18 0.268,0.179 0.239,0.178C0.21,0.177 0.179,0.177 0.146,0.177C0.123,0.177 0.1,0.177 0.078,0.178C0.055,0.179 0.038,0.18 0.026,0.181L0.026,0.16C0.049,0.16 0.065,0.155 0.074,0.146C0.084,0.137 0.088,0.12 0.088,0.094L0.088,-0.407C0.088,-0.437 0.084,-0.459 0.074,-0.474C0.064,-0.488 0.047,-0.495 0.02,-0.495L0.02,-0.516C0.042,-0.514 0.062,-0.513 0.082,-0.513C0.107,-0.513 0.131,-0.514 0.153,-0.517C0.175,-0.519 0.196,-0.523 0.214,-0.527ZM0.371,-0.531C0.406,-0.531 0.437,-0.521 0.464,-0.503C0.491,-0.484 0.513,-0.456 0.528,-0.419C0.544,-0.382 0.552,-0.336 0.552,-0.281C0.552,-0.237 0.547,-0.197 0.537,-0.161C0.527,-0.125 0.512,-0.093 0.492,-0.067C0.473,-0.041 0.449,-0.021 0.42,-0.007C0.392,0.007 0.359,0.014 0.322,0.014C0.294,0.014 0.269,0.009 0.247,-0.002C0.225,-0.013 0.209,-0.027 0.199,-0.045L0.209,-0.059C0.217,-0.045 0.228,-0.033 0.242,-0.025C0.256,-0.016 0.273,-0.012 0.292,-0.012C0.324,-0.012 0.35,-0.022 0.368,-0.044C0.387,-0.065 0.4,-0.094 0.408,-0.132C0.416,-0.17 0.419,-0.214 0.419,-0.264C0.419,-0.32 0.416,-0.364 0.408,-0.397C0.4,-0.43 0.389,-0.454 0.375,-0.469C0.361,-0.484 0.343,-0.492 0.323,-0.492C0.296,-0.492 0.271,-0.481 0.25,-0.46C0.228,-0.438 0.215,-0.407 0.21,-0.365L0.203,-0.393C0.214,-0.437 0.234,-0.471 0.264,-0.495C0.294,-0.519 0.33,-0.531 0.371,-0.531Z" style="fill:rgb(0,122,77);fill-rule:nonzero;"/>
        </g>
        <g transform="matrix(40.833333,0,0,40.833333,337.337042,118.613866)">
            <path d="M0.165,0.007C0.136,0.007 0.112,0.002 0.092,-0.009C0.072,-0.021 0.057,-0.035 0.047,-0.054C0.037,-0.073 0.032,-0.094 0.032,-0.118C0.032,-0.147 0.039,-0.17 0.052,-0.188C0.065,-0.207 0.082,-0.221 0.103,-0.233C0.124,-0.244 0.146,-0.253 0.17,-0.261C0.193,-0.268 0.215,-0.276 0.236,-0.283C0.257,-0.29 0.274,-0.298 0.287,-0.307C0.301,-0.317 0.307,-0.329 0.307,-0.344L0.307,-0.417C0.307,-0.438 0.304,-0.456 0.297,-0.47C0.291,-0.483 0.282,-0.494 0.269,-0.501C0.257,-0.507 0.241,-0.511 0.223,-0.511C0.209,-0.511 0.194,-0.509 0.179,-0.505C0.163,-0.501 0.151,-0.493 0.141,-0.482C0.158,-0.477 0.172,-0.468 0.181,-0.456C0.191,-0.443 0.196,-0.428 0.196,-0.41C0.196,-0.39 0.189,-0.373 0.175,-0.361C0.162,-0.35 0.145,-0.344 0.124,-0.344C0.102,-0.344 0.085,-0.351 0.074,-0.365C0.063,-0.379 0.057,-0.395 0.057,-0.414C0.057,-0.433 0.062,-0.448 0.071,-0.461C0.081,-0.473 0.093,-0.484 0.11,-0.494C0.127,-0.505 0.148,-0.514 0.174,-0.521C0.2,-0.527 0.228,-0.531 0.259,-0.531C0.288,-0.531 0.314,-0.527 0.337,-0.521C0.36,-0.515 0.379,-0.504 0.395,-0.488C0.411,-0.473 0.421,-0.454 0.426,-0.431C0.431,-0.409 0.433,-0.381 0.433,-0.348L0.433,-0.074C0.433,-0.057 0.435,-0.045 0.439,-0.039C0.443,-0.032 0.449,-0.028 0.458,-0.028C0.465,-0.028 0.471,-0.03 0.477,-0.033C0.483,-0.037 0.49,-0.041 0.497,-0.047L0.508,-0.03C0.494,-0.019 0.478,-0.009 0.462,-0.003C0.446,0.004 0.426,0.007 0.404,0.007C0.381,0.007 0.362,0.004 0.349,-0.003C0.335,-0.01 0.325,-0.02 0.318,-0.032C0.312,-0.045 0.309,-0.059 0.308,-0.077C0.292,-0.05 0.272,-0.029 0.249,-0.015C0.225,-0 0.197,0.007 0.165,0.007ZM0.225,-0.049C0.241,-0.049 0.256,-0.053 0.269,-0.062C0.283,-0.07 0.296,-0.084 0.307,-0.101L0.307,-0.303C0.301,-0.293 0.291,-0.284 0.279,-0.276C0.267,-0.268 0.253,-0.26 0.239,-0.252C0.225,-0.244 0.212,-0.235 0.2,-0.225C0.187,-0.215 0.177,-0.202 0.168,-0.187C0.16,-0.171 0.156,-0.152 0.156,-0.129C0.156,-0.103 0.162,-0.083 0.175,-0.07C0.187,-0.056 0.204,-0.049 0.225,-0.049Z" style="fill:rgb(0,122,77);fill-rule:nonzero;"/>
        </g>
        <g transform="matrix(40.833333,0,0,40.833333,358.611209,118.613866)">
            <path d="M0.282,-0.531C0.307,-0.531 0.33,-0.528 0.351,-0.522C0.372,-0.517 0.39,-0.509 0.405,-0.499C0.421,-0.489 0.434,-0.477 0.443,-0.462C0.452,-0.447 0.457,-0.43 0.457,-0.412C0.457,-0.39 0.45,-0.372 0.437,-0.359C0.424,-0.346 0.407,-0.339 0.387,-0.339C0.366,-0.339 0.349,-0.345 0.336,-0.357C0.323,-0.369 0.317,-0.385 0.317,-0.405C0.317,-0.425 0.323,-0.441 0.334,-0.453C0.346,-0.466 0.359,-0.474 0.375,-0.478C0.369,-0.487 0.36,-0.494 0.347,-0.5C0.334,-0.505 0.32,-0.508 0.305,-0.508C0.285,-0.508 0.267,-0.503 0.251,-0.492C0.235,-0.482 0.222,-0.466 0.21,-0.446C0.198,-0.426 0.189,-0.401 0.182,-0.371C0.176,-0.341 0.173,-0.307 0.173,-0.269C0.173,-0.215 0.179,-0.172 0.192,-0.141C0.205,-0.11 0.222,-0.088 0.243,-0.075C0.264,-0.062 0.286,-0.055 0.309,-0.055C0.323,-0.055 0.338,-0.058 0.354,-0.063C0.37,-0.068 0.386,-0.077 0.402,-0.09C0.418,-0.103 0.432,-0.121 0.444,-0.144L0.463,-0.137C0.455,-0.114 0.444,-0.09 0.427,-0.067C0.411,-0.043 0.39,-0.024 0.364,-0.009C0.338,0.006 0.306,0.014 0.269,0.014C0.226,0.014 0.187,0.004 0.153,-0.016C0.118,-0.035 0.091,-0.065 0.07,-0.105C0.05,-0.145 0.04,-0.194 0.04,-0.254C0.04,-0.313 0.05,-0.362 0.071,-0.404C0.092,-0.445 0.121,-0.476 0.157,-0.498C0.194,-0.52 0.236,-0.531 0.282,-0.531Z" style="fill:rgb(0,122,77);fill-rule:nonzero;"/>
        </g>
        <g transform="matrix(40.833333,0,0,40.833333,379.150376,118.613866)">
            <path d="M0.213,-0.783L0.213,-0.429C0.23,-0.466 0.253,-0.493 0.283,-0.508C0.312,-0.523 0.344,-0.531 0.379,-0.531C0.406,-0.531 0.429,-0.527 0.446,-0.52C0.463,-0.513 0.477,-0.504 0.488,-0.492C0.499,-0.479 0.508,-0.463 0.513,-0.443C0.518,-0.423 0.52,-0.396 0.52,-0.362L0.52,-0.093C0.52,-0.065 0.525,-0.046 0.536,-0.036C0.546,-0.026 0.564,-0.021 0.588,-0.021L0.588,-0C0.576,-0.001 0.558,-0.002 0.533,-0.003C0.508,-0.004 0.484,-0.004 0.46,-0.004C0.436,-0.004 0.412,-0.004 0.389,-0.003C0.365,-0.002 0.348,-0.001 0.336,-0L0.336,-0.021C0.358,-0.021 0.373,-0.026 0.381,-0.036C0.39,-0.046 0.394,-0.065 0.394,-0.093L0.394,-0.396C0.394,-0.414 0.393,-0.43 0.389,-0.445C0.386,-0.459 0.379,-0.47 0.369,-0.478C0.36,-0.486 0.345,-0.491 0.326,-0.491C0.305,-0.491 0.286,-0.485 0.269,-0.473C0.252,-0.462 0.238,-0.445 0.228,-0.425C0.218,-0.404 0.213,-0.38 0.213,-0.353L0.213,-0.093C0.213,-0.065 0.218,-0.046 0.226,-0.036C0.235,-0.026 0.25,-0.021 0.271,-0.021L0.271,-0C0.26,-0.001 0.243,-0.002 0.22,-0.003C0.198,-0.004 0.175,-0.004 0.151,-0.004C0.127,-0.004 0.102,-0.004 0.076,-0.003C0.051,-0.002 0.032,-0.001 0.019,-0L0.019,-0.021C0.044,-0.021 0.061,-0.026 0.072,-0.036C0.082,-0.046 0.087,-0.065 0.087,-0.093L0.087,-0.663C0.087,-0.693 0.082,-0.715 0.073,-0.729C0.063,-0.743 0.045,-0.751 0.019,-0.751L0.019,-0.772C0.041,-0.77 0.061,-0.769 0.081,-0.769C0.106,-0.769 0.13,-0.77 0.152,-0.772C0.174,-0.774 0.195,-0.778 0.213,-0.783Z" style="fill:rgb(0,122,77);fill-rule:nonzero;"/>
        </g>
        <g transform="matrix(40.833333,0,0,40.833333,404.140376,118.613866)">
            <path d="M0.28,-0.531C0.326,-0.531 0.367,-0.521 0.403,-0.503C0.439,-0.485 0.467,-0.456 0.487,-0.416C0.508,-0.376 0.519,-0.323 0.519,-0.258C0.519,-0.192 0.508,-0.14 0.487,-0.1C0.467,-0.06 0.439,-0.031 0.403,-0.013C0.367,0.005 0.326,0.014 0.28,0.014C0.234,0.014 0.193,0.005 0.157,-0.013C0.121,-0.031 0.092,-0.06 0.072,-0.1C0.051,-0.14 0.041,-0.192 0.041,-0.258C0.041,-0.323 0.051,-0.376 0.072,-0.416C0.092,-0.456 0.121,-0.485 0.157,-0.503C0.193,-0.521 0.234,-0.531 0.28,-0.531ZM0.28,-0.511C0.249,-0.511 0.223,-0.491 0.204,-0.451C0.184,-0.412 0.174,-0.347 0.174,-0.258C0.174,-0.168 0.184,-0.104 0.204,-0.065C0.223,-0.026 0.249,-0.006 0.28,-0.006C0.31,-0.006 0.336,-0.026 0.356,-0.065C0.376,-0.104 0.386,-0.168 0.386,-0.258C0.386,-0.347 0.376,-0.412 0.356,-0.451C0.336,-0.491 0.31,-0.511 0.28,-0.511Z" style="fill:rgb(0,122,77);fill-rule:nonzero;"/>
        </g>
        <g transform="matrix(40.833333,0,0,40.833333,427.374542,118.613866)">
        </g>
        <g transform="matrix(40.833333,0,0,40.833333,437.542042,118.613866)">
            <path d="M0.505,-0.783L0.505,-0.109C0.505,-0.079 0.51,-0.057 0.52,-0.043C0.53,-0.029 0.548,-0.021 0.573,-0.021L0.573,-0C0.553,-0.002 0.532,-0.003 0.511,-0.003C0.486,-0.003 0.463,-0.002 0.441,-0C0.419,0.002 0.398,0.005 0.379,0.011L0.379,-0.663C0.379,-0.693 0.374,-0.715 0.365,-0.73C0.355,-0.744 0.337,-0.751 0.311,-0.751L0.311,-0.772C0.333,-0.77 0.353,-0.769 0.373,-0.769C0.398,-0.769 0.422,-0.77 0.444,-0.773C0.466,-0.775 0.487,-0.779 0.505,-0.783ZM0.266,-0.531C0.295,-0.531 0.321,-0.525 0.345,-0.514C0.368,-0.503 0.385,-0.484 0.397,-0.457L0.385,-0.447C0.376,-0.467 0.363,-0.481 0.347,-0.49C0.331,-0.499 0.313,-0.504 0.293,-0.504C0.257,-0.504 0.228,-0.484 0.207,-0.443C0.185,-0.403 0.174,-0.342 0.174,-0.258C0.174,-0.202 0.179,-0.157 0.187,-0.123C0.196,-0.089 0.208,-0.064 0.225,-0.048C0.241,-0.033 0.26,-0.025 0.283,-0.025C0.307,-0.025 0.329,-0.035 0.348,-0.055C0.368,-0.074 0.379,-0.103 0.382,-0.139L0.389,-0.111C0.38,-0.07 0.364,-0.039 0.34,-0.018C0.316,0.003 0.285,0.014 0.245,0.014C0.205,0.014 0.17,0.004 0.139,-0.015C0.108,-0.035 0.084,-0.065 0.067,-0.105C0.05,-0.145 0.041,-0.197 0.041,-0.259C0.041,-0.32 0.051,-0.37 0.071,-0.411C0.091,-0.451 0.118,-0.481 0.152,-0.501C0.186,-0.521 0.224,-0.531 0.266,-0.531Z" style="fill:rgb(0,122,77);fill-rule:nonzero;"/>
        </g>
        <g transform="matrix(40.833333,0,0,40.833333,462.123709,118.613866)">
            <path d="M0.278,-0.531C0.337,-0.531 0.383,-0.513 0.416,-0.478C0.45,-0.443 0.466,-0.386 0.466,-0.309L0.129,-0.309L0.128,-0.328L0.35,-0.328C0.351,-0.361 0.349,-0.391 0.344,-0.418C0.338,-0.446 0.33,-0.468 0.319,-0.485C0.307,-0.502 0.292,-0.51 0.273,-0.51C0.248,-0.51 0.225,-0.495 0.207,-0.465C0.188,-0.436 0.177,-0.387 0.172,-0.32L0.176,-0.314C0.175,-0.305 0.174,-0.296 0.174,-0.286C0.173,-0.276 0.173,-0.266 0.173,-0.256C0.173,-0.21 0.18,-0.172 0.193,-0.142C0.207,-0.112 0.224,-0.09 0.245,-0.076C0.267,-0.062 0.288,-0.055 0.311,-0.055C0.327,-0.055 0.342,-0.057 0.358,-0.062C0.374,-0.067 0.39,-0.076 0.405,-0.088C0.421,-0.101 0.435,-0.119 0.447,-0.142L0.466,-0.134C0.459,-0.111 0.446,-0.087 0.429,-0.064C0.412,-0.041 0.39,-0.022 0.364,-0.008C0.338,0.007 0.306,0.014 0.27,0.014C0.225,0.014 0.184,0.004 0.15,-0.016C0.115,-0.036 0.088,-0.066 0.069,-0.105C0.05,-0.145 0.04,-0.193 0.04,-0.251C0.04,-0.311 0.05,-0.363 0.07,-0.404C0.091,-0.446 0.119,-0.477 0.155,-0.498C0.191,-0.52 0.232,-0.531 0.278,-0.531Z" style="fill:rgb(0,122,77);fill-rule:nonzero;"/>
        </g>
        <g transform="matrix(40.833333,0,0,40.833333,483.152876,118.613866)">
        </g>
        <g transform="matrix(40.833333,0,0,40.833333,493.320376,118.613866)">
            <path d="M0.685,-0.708L0.685,-0.688C0.664,-0.686 0.647,-0.681 0.636,-0.674C0.625,-0.666 0.618,-0.654 0.614,-0.638C0.61,-0.621 0.608,-0.598 0.608,-0.568L0.608,0.003C0.602,0.002 0.595,0.002 0.588,0.002C0.581,0.002 0.574,0.002 0.566,0.003L0.137,-0.58L0.137,-0.148C0.137,-0.116 0.139,-0.091 0.143,-0.073C0.147,-0.055 0.156,-0.043 0.17,-0.035C0.183,-0.028 0.204,-0.023 0.232,-0.02L0.232,-0C0.22,-0.001 0.203,-0.002 0.183,-0.003C0.163,-0.003 0.144,-0.003 0.126,-0.003C0.11,-0.003 0.094,-0.003 0.078,-0.003C0.062,-0.002 0.048,-0.001 0.037,-0L0.037,-0.02C0.059,-0.023 0.076,-0.028 0.087,-0.035C0.098,-0.042 0.105,-0.054 0.109,-0.071C0.112,-0.088 0.114,-0.111 0.114,-0.14L0.114,-0.602C0.114,-0.627 0.112,-0.645 0.109,-0.656C0.105,-0.668 0.097,-0.676 0.086,-0.68C0.075,-0.685 0.059,-0.687 0.037,-0.688L0.037,-0.708C0.048,-0.707 0.062,-0.707 0.078,-0.706C0.094,-0.705 0.11,-0.705 0.126,-0.705C0.142,-0.705 0.157,-0.705 0.171,-0.706C0.185,-0.707 0.198,-0.707 0.21,-0.708L0.585,-0.209L0.585,-0.56C0.585,-0.593 0.583,-0.618 0.579,-0.635C0.575,-0.653 0.566,-0.665 0.553,-0.673C0.539,-0.681 0.519,-0.686 0.49,-0.688L0.49,-0.708C0.503,-0.707 0.519,-0.707 0.539,-0.706C0.56,-0.705 0.579,-0.705 0.596,-0.705C0.613,-0.705 0.629,-0.705 0.645,-0.706C0.661,-0.707 0.675,-0.707 0.685,-0.708Z" style="fill:rgb(0,122,77);fill-rule:nonzero;"/>
        </g>
        <g transform="matrix(40.833333,0,0,40.833333,522.189542,118.613866)">
            <path d="M0.28,-0.531C0.326,-0.531 0.367,-0.521 0.403,-0.503C0.439,-0.485 0.467,-0.456 0.487,-0.416C0.508,-0.376 0.519,-0.323 0.519,-0.258C0.519,-0.192 0.508,-0.14 0.487,-0.1C0.467,-0.06 0.439,-0.031 0.403,-0.013C0.367,0.005 0.326,0.014 0.28,0.014C0.234,0.014 0.193,0.005 0.157,-0.013C0.121,-0.031 0.092,-0.06 0.072,-0.1C0.051,-0.14 0.041,-0.192 0.041,-0.258C0.041,-0.323 0.051,-0.376 0.072,-0.416C0.092,-0.456 0.121,-0.485 0.157,-0.503C0.193,-0.521 0.234,-0.531 0.28,-0.531ZM0.28,-0.511C0.249,-0.511 0.223,-0.491 0.204,-0.451C0.184,-0.412 0.174,-0.347 0.174,-0.258C0.174,-0.168 0.184,-0.104 0.204,-0.065C0.223,-0.026 0.249,-0.006 0.28,-0.006C0.31,-0.006 0.336,-0.026 0.356,-0.065C0.376,-0.104 0.386,-0.168 0.386,-0.258C0.386,-0.347 0.376,-0.412 0.356,-0.451C0.336,-0.491 0.31,-0.511 0.28,-0.511Z" style="fill:rgb(0,122,77);fill-rule:nonzero;"/>
        </g>
        <g transform="matrix(40.833333,0,0,40.833333,545.423709,118.613866)">
            <path d="M0.278,-0.531C0.337,-0.531 0.383,-0.513 0.416,-0.478C0.45,-0.443 0.466,-0.386 0.466,-0.309L0.129,-0.309L0.128,-0.328L0.35,-0.328C0.351,-0.361 0.349,-0.391 0.344,-0.418C0.338,-0.446 0.33,-0.468 0.319,-0.485C0.307,-0.502 0.292,-0.51 0.273,-0.51C0.248,-0.51 0.225,-0.495 0.207,-0.465C0.188,-0.436 0.177,-0.387 0.172,-0.32L0.176,-0.314C0.175,-0.305 0.174,-0.296 0.174,-0.286C0.173,-0.276 0.173,-0.266 0.173,-0.256C0.173,-0.21 0.18,-0.172 0.193,-0.142C0.207,-0.112 0.224,-0.09 0.245,-0.076C0.267,-0.062 0.288,-0.055 0.311,-0.055C0.327,-0.055 0.342,-0.057 0.358,-0.062C0.374,-0.067 0.39,-0.076 0.405,-0.088C0.421,-0.101 0.435,-0.119 0.447,-0.142L0.466,-0.134C0.459,-0.111 0.446,-0.087 0.429,-0.064C0.412,-0.041 0.39,-0.022 0.364,-0.008C0.338,0.007 0.306,0.014 0.27,0.014C0.225,0.014 0.184,0.004 0.15,-0.016C0.115,-0.036 0.088,-0.066 0.069,-0.105C0.05,-0.145 0.04,-0.193 0.04,-0.251C0.04,-0.311 0.05,-0.363 0.07,-0.404C0.091,-0.446 0.119,-0.477 0.155,-0.498C0.191,-0.52 0.232,-0.531 0.278,-0.531ZM0.383,-0.816C0.393,-0.808 0.398,-0.797 0.399,-0.783C0.4,-0.769 0.395,-0.756 0.384,-0.742C0.374,-0.729 0.361,-0.717 0.346,-0.706C0.331,-0.694 0.313,-0.68 0.293,-0.664C0.272,-0.648 0.248,-0.626 0.219,-0.599L0.208,-0.608C0.228,-0.643 0.243,-0.672 0.254,-0.696C0.264,-0.72 0.273,-0.741 0.28,-0.758C0.288,-0.776 0.297,-0.791 0.307,-0.804C0.318,-0.817 0.33,-0.824 0.345,-0.826C0.359,-0.828 0.372,-0.825 0.383,-0.816Z" style="fill:rgb(0,122,77);fill-rule:nonzero;"/>
        </g>
        <g transform="matrix(40.833333,0,0,40.833333,566.044542,118.613866)">
        </g>
    </g>
    <g transform="matrix(1.25564,0,0,1.25564,-36.010855,-28.473473)">
        <g transform="matrix(10.761022,0,0,10.761022,126.732673,79.935482)">
            <path d="M0.105,-0L0.105,-0.7L0.599,-0.7L0.599,-0.613L0.205,-0.613L0.205,-0.087L0.613,-0.087L0.613,-0L0.105,-0ZM0.196,-0.313L0.196,-0.398L0.556,-0.398L0.556,-0.313L0.196,-0.313Z" style="fill:rgb(0,122,77);fill-rule:nonzero;"/>
        </g>
        <g transform="matrix(10.761022,0,0,10.761022,136.740424,79.935482)">
            <path d="M0.105,-0L0.105,-0.7L0.205,-0.7L0.205,-0.087L0.584,-0.087L0.584,-0L0.105,-0Z" style="fill:rgb(0,122,77);fill-rule:nonzero;"/>
        </g>
        <g transform="matrix(10.761022,0,0,10.761022,145.930336,79.935482)">
        </g>
        <g transform="matrix(10.761022,0,0,10.761022,151.622917,79.935482)">
            <path d="M0.105,-0L0.105,-0.7L0.419,-0.7C0.5,-0.7 0.562,-0.684 0.605,-0.652C0.649,-0.62 0.67,-0.575 0.67,-0.519C0.67,-0.481 0.662,-0.449 0.644,-0.423C0.627,-0.397 0.604,-0.377 0.576,-0.363C0.547,-0.349 0.516,-0.342 0.483,-0.342L0.501,-0.372C0.541,-0.372 0.576,-0.365 0.607,-0.351C0.638,-0.337 0.662,-0.317 0.68,-0.29C0.698,-0.262 0.707,-0.229 0.707,-0.189C0.707,-0.129 0.684,-0.083 0.64,-0.05C0.595,-0.017 0.528,-0 0.439,-0L0.105,-0ZM0.205,-0.082L0.435,-0.082C0.49,-0.082 0.533,-0.091 0.562,-0.109C0.592,-0.128 0.606,-0.157 0.606,-0.197C0.606,-0.238 0.592,-0.267 0.562,-0.286C0.533,-0.305 0.49,-0.314 0.435,-0.314L0.196,-0.314L0.196,-0.395L0.41,-0.395C0.461,-0.395 0.5,-0.405 0.528,-0.423C0.556,-0.442 0.57,-0.47 0.57,-0.507C0.57,-0.544 0.556,-0.572 0.528,-0.591C0.5,-0.609 0.461,-0.619 0.41,-0.619L0.205,-0.619L0.205,-0.082Z" style="fill:rgb(0,122,77);fill-rule:nonzero;"/>
        </g>
        <g transform="matrix(10.761022,0,0,10.761022,162.566876,79.935482)">
            <path d="M0.105,-0L0.105,-0.7L0.205,-0.7L0.205,-0.087L0.584,-0.087L0.584,-0L0.105,-0Z" style="fill:rgb(0,122,77);fill-rule:nonzero;"/>
        </g>
        <g transform="matrix(10.761022,0,0,10.761022,171.616896,79.935482)">
            <path d="M0.421,0.008C0.367,0.008 0.318,-0.001 0.272,-0.019C0.227,-0.037 0.187,-0.062 0.154,-0.094C0.12,-0.126 0.094,-0.164 0.076,-0.208C0.057,-0.251 0.048,-0.298 0.048,-0.35C0.048,-0.402 0.057,-0.449 0.076,-0.492C0.094,-0.536 0.12,-0.574 0.154,-0.606C0.188,-0.638 0.227,-0.663 0.272,-0.681C0.318,-0.699 0.367,-0.708 0.421,-0.708C0.474,-0.708 0.523,-0.699 0.569,-0.681C0.614,-0.664 0.653,-0.639 0.686,-0.606C0.72,-0.574 0.746,-0.536 0.764,-0.493C0.783,-0.449 0.792,-0.402 0.792,-0.35C0.792,-0.298 0.783,-0.251 0.764,-0.207C0.746,-0.164 0.72,-0.126 0.686,-0.093C0.653,-0.061 0.614,-0.036 0.569,-0.019C0.523,-0.001 0.474,0.008 0.421,0.008ZM0.421,-0.081C0.46,-0.081 0.495,-0.088 0.528,-0.101C0.561,-0.114 0.59,-0.133 0.614,-0.158C0.639,-0.182 0.658,-0.21 0.672,-0.243C0.685,-0.276 0.692,-0.311 0.692,-0.35C0.692,-0.389 0.685,-0.425 0.672,-0.457C0.658,-0.49 0.639,-0.518 0.615,-0.542C0.59,-0.567 0.561,-0.585 0.528,-0.599C0.495,-0.612 0.46,-0.619 0.421,-0.619C0.382,-0.619 0.345,-0.612 0.312,-0.599C0.279,-0.585 0.25,-0.567 0.226,-0.542C0.201,-0.518 0.182,-0.489 0.169,-0.457C0.155,-0.424 0.148,-0.389 0.148,-0.35C0.148,-0.312 0.155,-0.276 0.169,-0.243C0.182,-0.211 0.201,-0.182 0.226,-0.158C0.25,-0.133 0.279,-0.114 0.312,-0.101C0.345,-0.088 0.382,-0.081 0.421,-0.081Z" style="fill:rgb(0,122,77);fill-rule:nonzero;"/>
        </g>
        <g transform="matrix(10.761022,0,0,10.761022,183.45402,79.935482)">
            <path d="M0.421,0.008C0.367,0.008 0.318,-0.001 0.272,-0.018C0.227,-0.036 0.187,-0.061 0.154,-0.093C0.12,-0.126 0.094,-0.164 0.076,-0.207C0.057,-0.251 0.048,-0.298 0.048,-0.35C0.048,-0.402 0.057,-0.449 0.076,-0.493C0.094,-0.536 0.121,-0.574 0.154,-0.607C0.188,-0.639 0.228,-0.664 0.273,-0.682C0.319,-0.699 0.368,-0.708 0.423,-0.708C0.478,-0.708 0.529,-0.699 0.575,-0.681C0.621,-0.663 0.66,-0.636 0.692,-0.6L0.63,-0.537C0.601,-0.566 0.57,-0.587 0.536,-0.6C0.503,-0.612 0.466,-0.619 0.427,-0.619C0.387,-0.619 0.35,-0.612 0.315,-0.599C0.281,-0.586 0.252,-0.567 0.227,-0.543C0.202,-0.519 0.182,-0.49 0.169,-0.457C0.155,-0.425 0.148,-0.389 0.148,-0.35C0.148,-0.312 0.155,-0.276 0.169,-0.243C0.182,-0.211 0.202,-0.182 0.227,-0.158C0.252,-0.133 0.281,-0.114 0.315,-0.101C0.349,-0.088 0.386,-0.081 0.426,-0.081C0.463,-0.081 0.499,-0.087 0.533,-0.098C0.567,-0.11 0.599,-0.13 0.629,-0.157L0.686,-0.081C0.651,-0.052 0.611,-0.029 0.564,-0.014C0.518,0.001 0.47,0.008 0.421,0.008ZM0.686,-0.081L0.59,-0.094L0.59,-0.354L0.686,-0.354L0.686,-0.081Z" style="fill:rgb(0,122,77);fill-rule:nonzero;"/>
        </g>
        <g transform="matrix(10.761022,0,0,10.761022,194.559395,79.935482)">
        </g>
        <g transform="matrix(10.761022,0,0,10.761022,200.251975,79.935482)">
            <path d="M0.105,-0L0.105,-0.7L0.378,-0.7C0.439,-0.7 0.491,-0.69 0.535,-0.671C0.578,-0.651 0.612,-0.623 0.635,-0.587C0.659,-0.55 0.67,-0.507 0.67,-0.456C0.67,-0.405 0.659,-0.362 0.635,-0.325C0.612,-0.289 0.578,-0.261 0.535,-0.241C0.491,-0.222 0.439,-0.212 0.378,-0.212L0.16,-0.212L0.205,-0.259L0.205,-0L0.105,-0ZM0.205,-0.249L0.16,-0.299L0.375,-0.299C0.439,-0.299 0.488,-0.312 0.521,-0.34C0.554,-0.367 0.57,-0.406 0.57,-0.456C0.57,-0.506 0.554,-0.545 0.521,-0.572C0.488,-0.6 0.439,-0.613 0.375,-0.613L0.16,-0.613L0.205,-0.663L0.205,-0.249Z" style="fill:rgb(0,122,77);fill-rule:nonzero;"/>
        </g>
        <g transform="matrix(10.761022,0,0,10.761022,210.711689,79.935482)">
            <path d="M0.105,-0L0.105,-0.7L0.599,-0.7L0.599,-0.613L0.205,-0.613L0.205,-0.087L0.613,-0.087L0.613,-0L0.105,-0ZM0.196,-0.313L0.196,-0.398L0.556,-0.398L0.556,-0.313L0.196,-0.313Z" style="fill:rgb(0,122,77);fill-rule:nonzero;"/>
        </g>
        <g transform="matrix(10.761022,0,0,10.761022,220.719439,79.935482)">
            <path d="M0.105,-0L0.105,-0.7L0.378,-0.7C0.469,-0.7 0.54,-0.678 0.592,-0.635C0.644,-0.592 0.67,-0.532 0.67,-0.456C0.67,-0.405 0.659,-0.362 0.635,-0.326C0.612,-0.29 0.578,-0.262 0.535,-0.242C0.491,-0.223 0.439,-0.213 0.378,-0.213L0.16,-0.213L0.205,-0.259L0.205,-0L0.105,-0ZM0.573,-0L0.395,-0.254L0.502,-0.254L0.682,-0L0.573,-0ZM0.205,-0.249L0.16,-0.298L0.375,-0.298C0.439,-0.298 0.488,-0.312 0.521,-0.339C0.554,-0.367 0.57,-0.406 0.57,-0.456C0.57,-0.506 0.554,-0.545 0.521,-0.572C0.488,-0.6 0.439,-0.613 0.375,-0.613L0.16,-0.613L0.205,-0.663L0.205,-0.249Z" style="fill:rgb(0,122,77);fill-rule:nonzero;"/>
        </g>
        <g transform="matrix(10.761022,0,0,10.761022,231.340568,79.935482)">
            <path d="M0.309,0.008C0.256,0.008 0.205,-0 0.156,-0.017C0.107,-0.033 0.069,-0.054 0.041,-0.08L0.078,-0.158C0.104,-0.135 0.138,-0.115 0.18,-0.1C0.221,-0.085 0.264,-0.077 0.309,-0.077C0.349,-0.077 0.382,-0.082 0.408,-0.091C0.433,-0.101 0.452,-0.113 0.464,-0.13C0.476,-0.146 0.482,-0.164 0.482,-0.185C0.482,-0.209 0.474,-0.229 0.458,-0.243C0.443,-0.258 0.423,-0.27 0.398,-0.279C0.373,-0.287 0.345,-0.295 0.315,-0.302C0.285,-0.309 0.255,-0.317 0.224,-0.326C0.194,-0.334 0.166,-0.346 0.142,-0.36C0.117,-0.374 0.096,-0.393 0.081,-0.416C0.065,-0.44 0.058,-0.47 0.058,-0.508C0.058,-0.544 0.067,-0.577 0.086,-0.608C0.106,-0.638 0.135,-0.662 0.175,-0.681C0.214,-0.699 0.265,-0.708 0.326,-0.708C0.367,-0.708 0.407,-0.703 0.447,-0.692C0.487,-0.681 0.522,-0.666 0.551,-0.646L0.518,-0.566C0.488,-0.586 0.456,-0.6 0.423,-0.609C0.389,-0.619 0.357,-0.623 0.326,-0.623C0.287,-0.623 0.254,-0.618 0.229,-0.608C0.204,-0.598 0.185,-0.585 0.174,-0.568C0.162,-0.551 0.156,-0.533 0.156,-0.512C0.156,-0.487 0.164,-0.468 0.179,-0.453C0.195,-0.438 0.215,-0.427 0.24,-0.418C0.265,-0.409 0.293,-0.402 0.323,-0.395C0.353,-0.387 0.383,-0.38 0.414,-0.371C0.444,-0.362 0.471,-0.351 0.496,-0.337C0.521,-0.323 0.542,-0.305 0.557,-0.281C0.572,-0.258 0.58,-0.228 0.58,-0.191C0.58,-0.156 0.57,-0.123 0.551,-0.092C0.531,-0.062 0.502,-0.038 0.462,-0.019C0.421,-0.001 0.371,0.008 0.309,0.008Z" style="fill:rgb(0,122,77);fill-rule:nonzero;"/>
        </g>
        <g transform="matrix(10.761022,0,0,10.761022,240.821028,79.935482)">
            <path d="M0.421,0.008C0.367,0.008 0.318,-0.001 0.272,-0.019C0.227,-0.037 0.187,-0.062 0.154,-0.094C0.12,-0.126 0.094,-0.164 0.076,-0.208C0.057,-0.251 0.048,-0.298 0.048,-0.35C0.048,-0.402 0.057,-0.449 0.076,-0.492C0.094,-0.536 0.12,-0.574 0.154,-0.606C0.188,-0.638 0.227,-0.663 0.272,-0.681C0.318,-0.699 0.367,-0.708 0.421,-0.708C0.474,-0.708 0.523,-0.699 0.569,-0.681C0.614,-0.664 0.653,-0.639 0.686,-0.606C0.72,-0.574 0.746,-0.536 0.764,-0.493C0.783,-0.449 0.792,-0.402 0.792,-0.35C0.792,-0.298 0.783,-0.251 0.764,-0.207C0.746,-0.164 0.72,-0.126 0.686,-0.093C0.653,-0.061 0.614,-0.036 0.569,-0.019C0.523,-0.001 0.474,0.008 0.421,0.008ZM0.421,-0.081C0.46,-0.081 0.495,-0.088 0.528,-0.101C0.561,-0.114 0.59,-0.133 0.614,-0.158C0.639,-0.182 0.658,-0.21 0.672,-0.243C0.685,-0.276 0.692,-0.311 0.692,-0.35C0.692,-0.389 0.685,-0.425 0.672,-0.457C0.658,-0.49 0.639,-0.518 0.615,-0.542C0.59,-0.567 0.561,-0.585 0.528,-0.599C0.495,-0.612 0.46,-0.619 0.421,-0.619C0.382,-0.619 0.345,-0.612 0.312,-0.599C0.279,-0.585 0.25,-0.567 0.226,-0.542C0.201,-0.518 0.182,-0.489 0.169,-0.457C0.155,-0.424 0.148,-0.389 0.148,-0.35C0.148,-0.312 0.155,-0.276 0.169,-0.243C0.182,-0.211 0.201,-0.182 0.226,-0.158C0.25,-0.133 0.279,-0.114 0.312,-0.101C0.345,-0.088 0.382,-0.081 0.421,-0.081Z" style="fill:rgb(0,122,77);fill-rule:nonzero;"/>
        </g>
        <g transform="matrix(10.761022,0,0,10.761022,252.658152,79.935482)">
            <path d="M0.105,-0L0.105,-0.7L0.187,-0.7L0.65,-0.125L0.607,-0.125L0.607,-0.7L0.707,-0.7L0.707,-0L0.625,-0L0.162,-0.575L0.205,-0.575L0.205,-0L0.105,-0Z" style="fill:rgb(0,122,77);fill-rule:nonzero;"/>
        </g>
        <g transform="matrix(10.761022,0,0,10.761022,264.193968,79.935482)">
            <path d="M-0.001,-0L0.316,-0.7L0.415,-0.7L0.733,-0L0.628,-0L0.345,-0.644L0.385,-0.644L0.102,-0L-0.001,-0ZM0.134,-0.175L0.161,-0.255L0.555,-0.255L0.584,-0.175L0.134,-0.175Z" style="fill:rgb(0,122,77);fill-rule:nonzero;"/>
        </g>
        <g transform="matrix(10.761022,0,0,10.761022,274.868902,79.935482)">
            <path d="M0.105,-0L0.105,-0.7L0.205,-0.7L0.205,-0.087L0.584,-0.087L0.584,-0L0.105,-0Z" style="fill:rgb(0,122,77);fill-rule:nonzero;"/>
        </g>
        <g transform="matrix(10.761022,0,0,10.761022,284.058814,79.935482)">
        </g>
        <g transform="matrix(10.761022,0,0,10.761022,289.751395,79.935482)">
            <path d="M0.105,-0L0.105,-0.7L0.4,-0.7C0.475,-0.7 0.541,-0.685 0.597,-0.656C0.654,-0.626 0.698,-0.585 0.73,-0.533C0.762,-0.481 0.778,-0.42 0.778,-0.35C0.778,-0.28 0.762,-0.219 0.73,-0.167C0.698,-0.115 0.654,-0.074 0.597,-0.044C0.541,-0.015 0.475,-0 0.4,-0L0.105,-0ZM0.205,-0.087L0.394,-0.087C0.452,-0.087 0.502,-0.098 0.544,-0.12C0.587,-0.142 0.619,-0.173 0.643,-0.212C0.666,-0.252 0.678,-0.298 0.678,-0.35C0.678,-0.403 0.666,-0.449 0.643,-0.488C0.619,-0.527 0.587,-0.558 0.544,-0.58C0.502,-0.602 0.452,-0.613 0.394,-0.613L0.205,-0.613L0.205,-0.087Z" style="fill:rgb(0,122,77);fill-rule:nonzero;"/>
        </g>
        <g transform="matrix(10.761022,0,0,10.761022,301.437865,79.935482)">
            <path d="M0.105,-0L0.105,-0.7L0.599,-0.7L0.599,-0.613L0.205,-0.613L0.205,-0.087L0.613,-0.087L0.613,-0L0.105,-0ZM0.196,-0.313L0.196,-0.398L0.556,-0.398L0.556,-0.313L0.196,-0.313Z" style="fill:rgb(0,122,77);fill-rule:nonzero;"/>
        </g>
        <g transform="matrix(10.761022,0,0,10.761022,311.445615,79.935482)">
        </g>
        <g transform="matrix(10.761022,0,0,10.761022,317.138196,79.935482)">
            <path d="M0.105,-0L0.105,-0.7L0.187,-0.7L0.65,-0.125L0.607,-0.125L0.607,-0.7L0.707,-0.7L0.707,-0L0.625,-0L0.162,-0.575L0.205,-0.575L0.205,-0L0.105,-0Z" style="fill:rgb(0,122,77);fill-rule:nonzero;"/>
        </g>
        <g transform="matrix(10.761022,0,0,10.761022,328.674011,79.935482)">
            <path d="M0.421,0.008C0.367,0.008 0.318,-0.001 0.272,-0.019C0.227,-0.037 0.187,-0.062 0.154,-0.094C0.12,-0.126 0.094,-0.164 0.076,-0.208C0.057,-0.251 0.048,-0.298 0.048,-0.35C0.048,-0.402 0.057,-0.449 0.076,-0.492C0.094,-0.536 0.12,-0.574 0.154,-0.606C0.188,-0.638 0.227,-0.663 0.272,-0.681C0.318,-0.699 0.367,-0.708 0.421,-0.708C0.474,-0.708 0.523,-0.699 0.569,-0.681C0.614,-0.664 0.653,-0.639 0.686,-0.606C0.72,-0.574 0.746,-0.536 0.764,-0.493C0.783,-0.449 0.792,-0.402 0.792,-0.35C0.792,-0.298 0.783,-0.251 0.764,-0.207C0.746,-0.164 0.72,-0.126 0.686,-0.093C0.653,-0.061 0.614,-0.036 0.569,-0.019C0.523,-0.001 0.474,0.008 0.421,0.008ZM0.421,-0.081C0.46,-0.081 0.495,-0.088 0.528,-0.101C0.561,-0.114 0.59,-0.133 0.614,-0.158C0.639,-0.182 0.658,-0.21 0.672,-0.243C0.685,-0.276 0.692,-0.311 0.692,-0.35C0.692,-0.389 0.685,-0.425 0.672,-0.457C0.658,-0.49 0.639,-0.518 0.615,-0.542C0.59,-0.567 0.561,-0.585 0.528,-0.599C0.495,-0.612 0.46,-0.619 0.421,-0.619C0.382,-0.619 0.345,-0.612 0.312,-0.599C0.279,-0.585 0.25,-0.567 0.226,-0.542C0.201,-0.518 0.182,-0.489 0.169,-0.457C0.155,-0.424 0.148,-0.389 0.148,-0.35C0.148,-0.312 0.155,-0.276 0.169,-0.243C0.182,-0.211 0.201,-0.182 0.226,-0.158C0.25,-0.133 0.279,-0.114 0.312,-0.101C0.345,-0.088 0.382,-0.081 0.421,-0.081Z" style="fill:rgb(0,122,77);fill-rule:nonzero;"/>
        </g>
        <g transform="matrix(10.761022,0,0,10.761022,340.511135,79.935482)">
            <path d="M0.105,-0L0.105,-0.7L0.599,-0.7L0.599,-0.613L0.205,-0.613L0.205,-0.087L0.613,-0.087L0.613,-0L0.105,-0ZM0.196,-0.313L0.196,-0.398L0.556,-0.398L0.556,-0.313L0.196,-0.313ZM0.277,-0.757L0.413,-0.887L0.535,-0.887L0.367,-0.757L0.277,-0.757Z" style="fill:rgb(0,122,77);fill-rule:nonzero;"/>
        </g>
        <g transform="matrix(10.761022,0,0,10.761022,350.518886,79.935482)">
        </g>
        <g transform="matrix(10.761022,0,0,10.761022,356.211466,79.935482)">
            <path d="M0.421,0.008C0.367,0.008 0.318,-0.001 0.272,-0.018C0.227,-0.036 0.187,-0.061 0.154,-0.093C0.12,-0.126 0.094,-0.164 0.076,-0.207C0.057,-0.251 0.048,-0.298 0.048,-0.35C0.048,-0.402 0.057,-0.449 0.076,-0.493C0.094,-0.536 0.121,-0.574 0.154,-0.607C0.188,-0.639 0.228,-0.664 0.273,-0.682C0.319,-0.699 0.368,-0.708 0.423,-0.708C0.478,-0.708 0.529,-0.699 0.575,-0.681C0.621,-0.663 0.66,-0.636 0.692,-0.6L0.63,-0.537C0.601,-0.566 0.57,-0.587 0.536,-0.6C0.503,-0.612 0.466,-0.619 0.427,-0.619C0.387,-0.619 0.35,-0.612 0.315,-0.599C0.281,-0.586 0.252,-0.567 0.227,-0.543C0.202,-0.519 0.182,-0.49 0.169,-0.457C0.155,-0.425 0.148,-0.389 0.148,-0.35C0.148,-0.312 0.155,-0.276 0.169,-0.243C0.182,-0.211 0.202,-0.182 0.227,-0.158C0.252,-0.133 0.281,-0.114 0.315,-0.101C0.349,-0.088 0.386,-0.081 0.426,-0.081C0.463,-0.081 0.499,-0.087 0.533,-0.098C0.567,-0.11 0.599,-0.13 0.629,-0.157L0.686,-0.081C0.651,-0.052 0.611,-0.029 0.564,-0.014C0.518,0.001 0.47,0.008 0.421,0.008ZM0.686,-0.081L0.59,-0.094L0.59,-0.354L0.686,-0.354L0.686,-0.081Z" style="fill:rgb(0,122,77);fill-rule:nonzero;"/>
        </g>
        <g transform="matrix(10.761022,0,0,10.761022,367.316841,79.935482)">
            <path d="M0.395,0.008C0.303,0.008 0.231,-0.018 0.178,-0.071C0.125,-0.124 0.099,-0.201 0.099,-0.302L0.099,-0.7L0.199,-0.7L0.199,-0.306C0.199,-0.228 0.216,-0.171 0.25,-0.135C0.284,-0.099 0.333,-0.081 0.396,-0.081C0.459,-0.081 0.508,-0.099 0.542,-0.135C0.577,-0.171 0.594,-0.228 0.594,-0.306L0.594,-0.7L0.691,-0.7L0.691,-0.302C0.691,-0.201 0.665,-0.124 0.613,-0.071C0.56,-0.018 0.488,0.008 0.395,0.008Z" style="fill:rgb(0,122,77);fill-rule:nonzero;"/>
        </g>
        <g transform="matrix(10.761022,0,0,10.761022,378.626675,79.935482)">
            <path d="M0.105,-0L0.105,-0.7L0.599,-0.7L0.599,-0.613L0.205,-0.613L0.205,-0.087L0.613,-0.087L0.613,-0L0.105,-0ZM0.196,-0.313L0.196,-0.398L0.556,-0.398L0.556,-0.313L0.196,-0.313Z" style="fill:rgb(0,122,77);fill-rule:nonzero;"/>
        </g>
        <g transform="matrix(10.761022,0,0,10.761022,388.634426,79.935482)">
            <path d="M0.105,-0L0.105,-0.7L0.378,-0.7C0.469,-0.7 0.54,-0.678 0.592,-0.635C0.644,-0.592 0.67,-0.532 0.67,-0.456C0.67,-0.405 0.659,-0.362 0.635,-0.326C0.612,-0.29 0.578,-0.262 0.535,-0.242C0.491,-0.223 0.439,-0.213 0.378,-0.213L0.16,-0.213L0.205,-0.259L0.205,-0L0.105,-0ZM0.573,-0L0.395,-0.254L0.502,-0.254L0.682,-0L0.573,-0ZM0.205,-0.249L0.16,-0.298L0.375,-0.298C0.439,-0.298 0.488,-0.312 0.521,-0.339C0.554,-0.367 0.57,-0.406 0.57,-0.456C0.57,-0.506 0.554,-0.545 0.521,-0.572C0.488,-0.6 0.439,-0.613 0.375,-0.613L0.16,-0.613L0.205,-0.663L0.205,-0.249Z" style="fill:rgb(0,122,77);fill-rule:nonzero;"/>
        </g>
        <g transform="matrix(10.761022,0,0,10.761022,399.255554,79.935482)">
            <path d="M0.105,-0L0.105,-0.7L0.378,-0.7C0.469,-0.7 0.54,-0.678 0.592,-0.635C0.644,-0.592 0.67,-0.532 0.67,-0.456C0.67,-0.405 0.659,-0.362 0.635,-0.326C0.612,-0.29 0.578,-0.262 0.535,-0.242C0.491,-0.223 0.439,-0.213 0.378,-0.213L0.16,-0.213L0.205,-0.259L0.205,-0L0.105,-0ZM0.573,-0L0.395,-0.254L0.502,-0.254L0.682,-0L0.573,-0ZM0.205,-0.249L0.16,-0.298L0.375,-0.298C0.439,-0.298 0.488,-0.312 0.521,-0.339C0.554,-0.367 0.57,-0.406 0.57,-0.456C0.57,-0.506 0.554,-0.545 0.521,-0.572C0.488,-0.6 0.439,-0.613 0.375,-0.613L0.16,-0.613L0.205,-0.663L0.205,-0.249Z" style="fill:rgb(0,122,77);fill-rule:nonzero;"/>
        </g>
        <g transform="matrix(10.761022,0,0,10.761022,409.876683,79.935482)">
            <path d="M0.105,-0L0.105,-0.7L0.599,-0.7L0.599,-0.613L0.205,-0.613L0.205,-0.087L0.613,-0.087L0.613,-0L0.105,-0ZM0.196,-0.313L0.196,-0.398L0.556,-0.398L0.556,-0.313L0.196,-0.313Z" style="fill:rgb(0,122,77);fill-rule:nonzero;"/>
        </g>
        <g transform="matrix(10.761022,0,0,10.761022,419.884433,79.935482)">
            <path d="M0.105,-0L0.105,-0.7L0.378,-0.7C0.469,-0.7 0.54,-0.678 0.592,-0.635C0.644,-0.592 0.67,-0.532 0.67,-0.456C0.67,-0.405 0.659,-0.362 0.635,-0.326C0.612,-0.29 0.578,-0.262 0.535,-0.242C0.491,-0.223 0.439,-0.213 0.378,-0.213L0.16,-0.213L0.205,-0.259L0.205,-0L0.105,-0ZM0.573,-0L0.395,-0.254L0.502,-0.254L0.682,-0L0.573,-0ZM0.205,-0.249L0.16,-0.298L0.375,-0.298C0.439,-0.298 0.488,-0.312 0.521,-0.339C0.554,-0.367 0.57,-0.406 0.57,-0.456C0.57,-0.506 0.554,-0.545 0.521,-0.572C0.488,-0.6 0.439,-0.613 0.375,-0.613L0.16,-0.613L0.205,-0.663L0.205,-0.249Z" style="fill:rgb(0,122,77);fill-rule:nonzero;"/>
        </g>
        <g transform="matrix(10.761022,0,0,10.761022,430.505562,79.935482)">
            <path d="M0.421,0.008C0.367,0.008 0.318,-0.001 0.272,-0.019C0.227,-0.037 0.187,-0.062 0.154,-0.094C0.12,-0.126 0.094,-0.164 0.076,-0.208C0.057,-0.251 0.048,-0.298 0.048,-0.35C0.048,-0.402 0.057,-0.449 0.076,-0.492C0.094,-0.536 0.12,-0.574 0.154,-0.606C0.188,-0.638 0.227,-0.663 0.272,-0.681C0.318,-0.699 0.367,-0.708 0.421,-0.708C0.474,-0.708 0.523,-0.699 0.569,-0.681C0.614,-0.664 0.653,-0.639 0.686,-0.606C0.72,-0.574 0.746,-0.536 0.764,-0.493C0.783,-0.449 0.792,-0.402 0.792,-0.35C0.792,-0.298 0.783,-0.251 0.764,-0.207C0.746,-0.164 0.72,-0.126 0.686,-0.093C0.653,-0.061 0.614,-0.036 0.569,-0.019C0.523,-0.001 0.474,0.008 0.421,0.008ZM0.421,-0.081C0.46,-0.081 0.495,-0.088 0.528,-0.101C0.561,-0.114 0.59,-0.133 0.614,-0.158C0.639,-0.182 0.658,-0.21 0.672,-0.243C0.685,-0.276 0.692,-0.311 0.692,-0.35C0.692,-0.389 0.685,-0.425 0.672,-0.457C0.658,-0.49 0.639,-0.518 0.615,-0.542C0.59,-0.567 0.561,-0.585 0.528,-0.599C0.495,-0.612 0.46,-0.619 0.421,-0.619C0.382,-0.619 0.345,-0.612 0.312,-0.599C0.279,-0.585 0.25,-0.567 0.226,-0.542C0.201,-0.518 0.182,-0.489 0.169,-0.457C0.155,-0.424 0.148,-0.389 0.148,-0.35C0.148,-0.312 0.155,-0.276 0.169,-0.243C0.182,-0.211 0.201,-0.182 0.226,-0.158C0.25,-0.133 0.279,-0.114 0.312,-0.101C0.345,-0.088 0.382,-0.081 0.421,-0.081Z" style="fill:rgb(0,122,77);fill-rule:nonzero;"/>
        </g>
    </g>
    <g transform="matrix(0.900798,0,0,0.900798,-31.195027,4.013569)">
        <g transform="matrix(10.141176,0,0,10.141176,240.792079,89.60396)">
            <path d="M0.114,-0L0.114,-0.7L0.175,-0.7L0.495,-0.154L0.463,-0.154L0.78,-0.7L0.841,-0.7L0.841,-0L0.77,-0L0.77,-0.589L0.787,-0.589L0.495,-0.089L0.46,-0.089L0.166,-0.589L0.185,-0.589L0.185,-0L0.114,-0Z" style="fill:rgb(0,122,77);fill-rule:nonzero;"/>
        </g>
        <g transform="matrix(10.141176,0,0,10.141176,254.837608,89.60396)">
            <path d="M0.002,-0L0.322,-0.7L0.395,-0.7L0.715,-0L0.637,-0L0.343,-0.657L0.373,-0.657L0.079,-0L0.002,-0ZM0.128,-0.187L0.15,-0.247L0.557,-0.247L0.58,-0.187L0.128,-0.187Z" style="fill:rgb(0,122,77);fill-rule:nonzero;"/>
        </g>
        <g transform="matrix(10.141176,0,0,10.141176,266.469536,89.60396)">
            <path d="M0.114,-0L0.114,-0.7L0.376,-0.7C0.465,-0.7 0.535,-0.679 0.586,-0.637C0.637,-0.594 0.662,-0.536 0.662,-0.46C0.662,-0.411 0.651,-0.368 0.628,-0.333C0.605,-0.297 0.572,-0.27 0.529,-0.251C0.486,-0.231 0.435,-0.222 0.376,-0.222L0.155,-0.222L0.188,-0.256L0.188,-0L0.114,-0ZM0.592,-0L0.412,-0.254L0.492,-0.254L0.673,-0L0.592,-0ZM0.188,-0.25L0.155,-0.285L0.374,-0.285C0.444,-0.285 0.497,-0.3 0.534,-0.331C0.57,-0.362 0.588,-0.405 0.588,-0.46C0.588,-0.516 0.57,-0.56 0.534,-0.59C0.497,-0.62 0.444,-0.636 0.374,-0.636L0.155,-0.636L0.188,-0.671L0.188,-0.25Z" style="fill:rgb(0,122,77);fill-rule:nonzero;"/>
        </g>
        <g transform="matrix(10.141176,0,0,10.141176,278.162312,89.60396)">
            <path d="M0.114,-0L0.114,-0.7L0.416,-0.7C0.494,-0.7 0.554,-0.684 0.597,-0.653C0.64,-0.622 0.662,-0.577 0.662,-0.52C0.662,-0.482 0.653,-0.45 0.635,-0.424C0.618,-0.398 0.594,-0.378 0.564,-0.365C0.534,-0.352 0.5,-0.345 0.464,-0.345L0.481,-0.369C0.526,-0.369 0.564,-0.362 0.597,-0.348C0.629,-0.335 0.654,-0.314 0.672,-0.287C0.69,-0.26 0.699,-0.227 0.699,-0.187C0.699,-0.128 0.677,-0.082 0.633,-0.049C0.589,-0.016 0.524,-0 0.436,-0L0.114,-0ZM0.188,-0.061L0.435,-0.061C0.496,-0.061 0.544,-0.071 0.576,-0.092C0.609,-0.114 0.625,-0.147 0.625,-0.193C0.625,-0.238 0.609,-0.272 0.576,-0.293C0.544,-0.314 0.496,-0.324 0.435,-0.324L0.18,-0.324L0.18,-0.385L0.411,-0.385C0.467,-0.385 0.511,-0.396 0.542,-0.417C0.573,-0.438 0.588,-0.47 0.588,-0.512C0.588,-0.554 0.573,-0.586 0.542,-0.607C0.511,-0.628 0.467,-0.639 0.411,-0.639L0.188,-0.639L0.188,-0.061Z" style="fill:rgb(0,122,77);fill-rule:nonzero;"/>
        </g>
        <g transform="matrix(10.141176,0,0,10.141176,290.169464,89.60396)">
            <path d="M0.114,-0L0.114,-0.7L0.594,-0.7L0.594,-0.636L0.188,-0.636L0.188,-0.064L0.609,-0.064L0.609,-0L0.114,-0ZM0.18,-0.324L0.18,-0.387L0.55,-0.387L0.55,-0.324L0.18,-0.324Z" style="fill:rgb(0,122,77);fill-rule:nonzero;"/>
        </g>
        <g transform="matrix(10.141176,0,0,10.141176,301.314617,89.60396)">
            <path d="M0.114,-0L0.114,-0.7L0.188,-0.7L0.188,-0.064L0.58,-0.064L0.58,-0L0.114,-0Z" style="fill:rgb(0,122,77);fill-rule:nonzero;"/>
        </g>
        <g transform="matrix(10.141176,0,0,10.141176,311.648475,89.60396)">
            <path d="M0.114,-0L0.114,-0.7L0.188,-0.7L0.188,-0.064L0.58,-0.064L0.58,-0L0.114,-0Z" style="fill:rgb(0,122,77);fill-rule:nonzero;"/>
        </g>
        <g transform="matrix(10.141176,0,0,10.141176,321.982333,89.60396)">
            <path d="M0.002,-0L0.322,-0.7L0.395,-0.7L0.715,-0L0.637,-0L0.343,-0.657L0.373,-0.657L0.079,-0L0.002,-0ZM0.128,-0.187L0.15,-0.247L0.557,-0.247L0.58,-0.187L0.128,-0.187Z" style="fill:rgb(0,122,77);fill-rule:nonzero;"/>
        </g>
        <g transform="matrix(10.141176,0,0,10.141176,333.959062,89.60396)">
            <path d="M0.056,0.146L0.1,-0.039L0.108,0.004C0.093,0.004 0.08,-0.001 0.069,-0.011C0.059,-0.021 0.054,-0.034 0.054,-0.05C0.054,-0.066 0.059,-0.079 0.069,-0.089C0.079,-0.099 0.092,-0.104 0.107,-0.104C0.122,-0.104 0.135,-0.099 0.145,-0.088C0.155,-0.078 0.16,-0.065 0.16,-0.05C0.16,-0.044 0.159,-0.039 0.158,-0.034C0.157,-0.028 0.156,-0.022 0.154,-0.016C0.152,-0.009 0.15,-0.001 0.146,0.008L0.104,0.146L0.056,0.146Z" style="fill:rgb(0,122,77);fill-rule:nonzero;"/>
        </g>
        <g transform="matrix(10.141176,0,0,10.141176,340.469697,89.60396)">
        </g>
        <g transform="matrix(10.141176,0,0,10.141176,347.48739,89.60396)">
            <path d="M0.114,-0L0.114,-0.7L0.175,-0.7L0.495,-0.154L0.463,-0.154L0.78,-0.7L0.841,-0.7L0.841,-0L0.77,-0L0.77,-0.589L0.787,-0.589L0.495,-0.089L0.46,-0.089L0.166,-0.589L0.185,-0.589L0.185,-0L0.114,-0Z" style="fill:rgb(0,122,77);fill-rule:nonzero;"/>
        </g>
        <g transform="matrix(10.141176,0,0,10.141176,361.532919,89.60396)">
            <path d="M0.002,-0L0.322,-0.7L0.395,-0.7L0.715,-0L0.637,-0L0.343,-0.657L0.373,-0.657L0.079,-0L0.002,-0ZM0.128,-0.187L0.15,-0.247L0.557,-0.247L0.58,-0.187L0.128,-0.187ZM0.294,-0.757L0.431,-0.881L0.526,-0.881L0.364,-0.757L0.294,-0.757Z" style="fill:rgb(0,122,77);fill-rule:nonzero;"/>
        </g>
        <g transform="matrix(10.141176,0,0,10.141176,373.164847,89.60396)">
            <path d="M0.114,-0L0.114,-0.7L0.188,-0.7L0.188,-0.064L0.58,-0.064L0.58,-0L0.114,-0Z" style="fill:rgb(0,122,77);fill-rule:nonzero;"/>
        </g>
        <g transform="matrix(10.141176,0,0,10.141176,383.498706,89.60396)">
            <path d="M0.002,-0L0.322,-0.7L0.395,-0.7L0.715,-0L0.637,-0L0.343,-0.657L0.373,-0.657L0.079,-0L0.002,-0ZM0.128,-0.187L0.15,-0.247L0.557,-0.247L0.58,-0.187L0.128,-0.187Z" style="fill:rgb(0,122,77);fill-rule:nonzero;"/>
        </g>
        <g transform="matrix(10.141176,0,0,10.141176,395.029223,89.60396)">
            <path d="M0.421,0.006C0.368,0.006 0.319,-0.002 0.274,-0.02C0.229,-0.038 0.19,-0.063 0.157,-0.095C0.123,-0.127 0.098,-0.165 0.079,-0.208C0.061,-0.251 0.052,-0.299 0.052,-0.35C0.052,-0.401 0.061,-0.449 0.079,-0.492C0.098,-0.535 0.123,-0.573 0.157,-0.605C0.19,-0.637 0.23,-0.662 0.274,-0.68C0.319,-0.698 0.369,-0.706 0.422,-0.706C0.475,-0.706 0.524,-0.698 0.568,-0.681C0.613,-0.664 0.651,-0.639 0.682,-0.605L0.636,-0.558C0.607,-0.587 0.574,-0.608 0.539,-0.621C0.504,-0.634 0.466,-0.64 0.425,-0.64C0.382,-0.64 0.342,-0.633 0.306,-0.619C0.269,-0.604 0.237,-0.584 0.21,-0.557C0.183,-0.531 0.162,-0.501 0.148,-0.465C0.133,-0.43 0.125,-0.392 0.125,-0.35C0.125,-0.309 0.133,-0.27 0.148,-0.235C0.162,-0.2 0.183,-0.169 0.21,-0.143C0.237,-0.116 0.269,-0.096 0.305,-0.081C0.342,-0.067 0.381,-0.06 0.424,-0.06C0.464,-0.06 0.501,-0.066 0.537,-0.078C0.573,-0.09 0.606,-0.11 0.636,-0.139L0.678,-0.083C0.645,-0.053 0.606,-0.031 0.561,-0.016C0.516,-0.001 0.469,0.006 0.421,0.006ZM0.678,-0.083L0.607,-0.092L0.607,-0.35L0.678,-0.35L0.678,-0.083Z" style="fill:rgb(0,122,77);fill-rule:nonzero;"/>
        </g>
        <g transform="matrix(10.141176,0,0,10.141176,407.229057,89.60396)">
            <path d="M0.002,-0L0.322,-0.7L0.395,-0.7L0.715,-0L0.637,-0L0.343,-0.657L0.373,-0.657L0.079,-0L0.002,-0ZM0.128,-0.187L0.15,-0.247L0.557,-0.247L0.58,-0.187L0.128,-0.187Z" style="fill:rgb(0,122,77);fill-rule:nonzero;"/>
        </g>
        <g transform="matrix(10.141176,0,0,10.141176,418.860986,89.60396)">
        </g>
        <g transform="matrix(10.141176,0,0,10.141176,425.87868,89.60396)">
            <path d="M0.22,0.194C0.183,0.133 0.155,0.063 0.134,-0.016C0.114,-0.096 0.104,-0.182 0.104,-0.274C0.104,-0.366 0.114,-0.453 0.134,-0.533C0.155,-0.613 0.183,-0.683 0.22,-0.742L0.288,-0.742C0.249,-0.673 0.22,-0.601 0.202,-0.524C0.183,-0.446 0.174,-0.363 0.174,-0.274C0.174,-0.185 0.183,-0.102 0.202,-0.024C0.22,0.053 0.249,0.125 0.288,0.194L0.22,0.194Z" style="fill:rgb(0,122,77);fill-rule:nonzero;"/>
        </g>
        <g transform="matrix(10.141176,0,0,10.141176,433.575832,89.60396)">
            <path d="M0.002,-0L0.322,-0.7L0.395,-0.7L0.715,-0L0.637,-0L0.343,-0.657L0.373,-0.657L0.079,-0L0.002,-0ZM0.128,-0.187L0.15,-0.247L0.557,-0.247L0.58,-0.187L0.128,-0.187Z" style="fill:rgb(0,122,77);fill-rule:nonzero;"/>
        </g>
        <g transform="matrix(10.141176,0,0,10.141176,445.207761,89.60396)">
            <path d="M0.114,-0L0.114,-0.7L0.175,-0.7L0.658,-0.092L0.626,-0.092L0.626,-0.7L0.699,-0.7L0.699,-0L0.638,-0L0.156,-0.608L0.188,-0.608L0.188,-0L0.114,-0Z" style="fill:rgb(0,122,77);fill-rule:nonzero;"/>
        </g>
        <g transform="matrix(10.141176,0,0,10.141176,457.813242,89.60396)">
            <path d="M0.114,-0L0.114,-0.7L0.399,-0.7C0.474,-0.7 0.539,-0.685 0.596,-0.655C0.652,-0.626 0.696,-0.584 0.727,-0.532C0.759,-0.48 0.774,-0.419 0.774,-0.35C0.774,-0.281 0.759,-0.22 0.727,-0.168C0.696,-0.116 0.652,-0.074 0.596,-0.045C0.539,-0.015 0.474,-0 0.399,-0L0.114,-0ZM0.188,-0.064L0.395,-0.064C0.457,-0.064 0.511,-0.076 0.557,-0.101C0.602,-0.125 0.638,-0.159 0.663,-0.202C0.688,-0.244 0.701,-0.294 0.701,-0.35C0.701,-0.406 0.688,-0.456 0.663,-0.499C0.638,-0.541 0.602,-0.575 0.557,-0.599C0.511,-0.624 0.457,-0.636 0.395,-0.636L0.188,-0.636L0.188,-0.064Z" style="fill:rgb(0,122,77);fill-rule:nonzero;"/>
        </g>
        <g transform="matrix(10.141176,0,0,10.141176,470.449147,89.60396)">
            <path d="M0.002,-0L0.322,-0.7L0.395,-0.7L0.715,-0L0.637,-0L0.343,-0.657L0.373,-0.657L0.079,-0L0.002,-0ZM0.128,-0.187L0.15,-0.247L0.557,-0.247L0.58,-0.187L0.128,-0.187Z" style="fill:rgb(0,122,77);fill-rule:nonzero;"/>
        </g>
        <g transform="matrix(10.141176,0,0,10.141176,482.081076,89.60396)">
            <path d="M0.114,-0L0.114,-0.7L0.188,-0.7L0.188,-0.064L0.58,-0.064L0.58,-0L0.114,-0Z" style="fill:rgb(0,122,77);fill-rule:nonzero;"/>
        </g>
        <g transform="matrix(10.141176,0,0,10.141176,492.283099,89.60396)">
            <path d="M0.396,0.006C0.306,0.006 0.236,-0.019 0.185,-0.071C0.134,-0.123 0.108,-0.199 0.108,-0.299L0.108,-0.7L0.182,-0.7L0.182,-0.302C0.182,-0.219 0.2,-0.158 0.238,-0.119C0.275,-0.079 0.328,-0.06 0.396,-0.06C0.465,-0.06 0.518,-0.079 0.555,-0.119C0.593,-0.158 0.611,-0.219 0.611,-0.302L0.611,-0.7L0.683,-0.7L0.683,-0.299C0.683,-0.199 0.658,-0.123 0.607,-0.071C0.556,-0.019 0.485,0.006 0.396,0.006Z" style="fill:rgb(0,122,77);fill-rule:nonzero;"/>
        </g>
        <g transform="matrix(10.141176,0,0,10.141176,504.675616,89.60396)">
            <path d="M0.418,0.006C0.366,0.006 0.317,-0.002 0.272,-0.02C0.228,-0.038 0.189,-0.063 0.156,-0.095C0.123,-0.127 0.098,-0.165 0.079,-0.208C0.061,-0.251 0.052,-0.299 0.052,-0.35C0.052,-0.401 0.061,-0.449 0.079,-0.492C0.098,-0.535 0.123,-0.573 0.156,-0.605C0.189,-0.637 0.228,-0.662 0.273,-0.68C0.318,-0.698 0.366,-0.706 0.419,-0.706C0.47,-0.706 0.518,-0.698 0.562,-0.681C0.606,-0.664 0.644,-0.638 0.675,-0.604L0.628,-0.557C0.6,-0.586 0.568,-0.607 0.533,-0.621C0.498,-0.634 0.461,-0.64 0.421,-0.64C0.379,-0.64 0.34,-0.633 0.304,-0.619C0.268,-0.604 0.236,-0.584 0.21,-0.557C0.183,-0.531 0.162,-0.501 0.148,-0.465C0.133,-0.43 0.125,-0.392 0.125,-0.35C0.125,-0.308 0.133,-0.27 0.148,-0.235C0.162,-0.199 0.183,-0.169 0.21,-0.143C0.236,-0.116 0.268,-0.096 0.304,-0.081C0.34,-0.067 0.379,-0.06 0.421,-0.06C0.461,-0.06 0.498,-0.066 0.533,-0.08C0.568,-0.093 0.6,-0.115 0.628,-0.144L0.675,-0.097C0.644,-0.063 0.606,-0.037 0.562,-0.02C0.518,-0.002 0.47,0.006 0.418,0.006Z" style="fill:rgb(0,122,77);fill-rule:nonzero;"/>
        </g>
        <g transform="matrix(10.141176,0,0,10.141176,516.226415,89.60396)">
            <path d="M0.114,-0L0.114,-0.7L0.188,-0.7L0.188,-0L0.114,-0ZM0.086,-0.757L0.223,-0.881L0.318,-0.881L0.156,-0.757L0.086,-0.757Z" style="fill:rgb(0,122,77);fill-rule:nonzero;"/>
        </g>
        <g transform="matrix(10.141176,0,0,10.141176,523.649756,89.60396)">
            <path d="M0.002,-0L0.322,-0.7L0.395,-0.7L0.715,-0L0.637,-0L0.343,-0.657L0.373,-0.657L0.079,-0L0.002,-0ZM0.128,-0.187L0.15,-0.247L0.557,-0.247L0.58,-0.187L0.128,-0.187Z" style="fill:rgb(0,122,77);fill-rule:nonzero;"/>
        </g>
        <g transform="matrix(10.141176,0,0,10.141176,535.281685,89.60396)">
            <path d="M0.04,0.194C0.08,0.125 0.109,0.053 0.128,-0.024C0.146,-0.102 0.155,-0.185 0.155,-0.274C0.155,-0.363 0.146,-0.446 0.128,-0.524C0.109,-0.601 0.08,-0.673 0.04,-0.742L0.108,-0.742C0.146,-0.683 0.175,-0.613 0.195,-0.533C0.215,-0.453 0.225,-0.366 0.225,-0.274C0.225,-0.182 0.215,-0.096 0.195,-0.016C0.175,0.063 0.146,0.133 0.108,0.194L0.04,0.194Z" style="fill:rgb(0,122,77);fill-rule:nonzero;"/>
        </g>
        <g transform="matrix(10.141176,0,0,10.141176,538.618131,89.60396)">
        </g>
    </g>
</svg>
